<svg viewBox="0 0 272 189" fill="none" xmlns="http://www.w3.org/2000/svg">
<path d="M13.3134 26.5657C20.6661 26.5657 26.6267 20.6188 26.6267 13.2829C26.6267 5.94694 20.6661 0 13.3134 0C5.96059 0 0 5.94694 0 13.2829C0 20.6188 5.96059 26.5657 13.3134 26.5657Z" transform="translate(13.9336 5.57715)" fill="#2C7BE5"/>
<path opacity="0.1" d="M16.2736 45.8999C21.8635 58.4971 14.7329 73.0028 6.33937 83.9257C3.53008 87.5885 0.428688 91.4285 0.039224 96.0228C-0.430423 101.643 3.38403 106.809 7.90868 110.186C16.1619 116.34 27.4334 118.243 37.2559 115.137C45.7439 112.454 52.8803 106.394 61.4428 103.951C75.7613 99.86 90.9389 106.643 103.201 115.094C111.881 121.069 121.177 128.349 131.641 127.069C139.003 126.169 145.252 121.011 149.493 114.94C151.541 112.009 153.322 108.723 156.303 106.746C158.076 105.569 160.158 104.946 162.239 104.5C181.252 100.446 201.429 110.34 220.189 105.251C232.861 101.823 242.964 91.8228 249.247 80.3171C255.53 68.8114 258.463 55.8199 260.905 42.9485C262.641 33.8056 264.081 23.9285 260.092 15.5199C255.871 6.61706 246.1 1.21991 236.28 0.208483C226.461 -0.802946 216.613 1.98848 207.566 5.92563C196.263 10.8571 185.183 17.7599 172.847 17.7828C164.444 17.7999 156.432 14.5828 148.399 12.1285C134.968 8.02849 121.002 5.99134 107.084 4.11134C93.7597 2.31134 80.3031 0.637055 66.8981 1.69991C57.4135 2.45134 49.0372 6.06849 39.8333 7.74277C33.8338 8.8342 27.8057 8.02849 21.9179 9.85706C14.667 12.1199 7.20994 17.3628 6.80902 25.6199C6.43101 33.4799 13.3096 39.2171 16.2736 45.8999Z" transform="translate(9.34766)" fill="#2C7BE5"/>
<path d="M81.158 20.0547C79.9352 16.8747 76.7822 9.40043 74.7061 10.8833C72.0829 12.7576 77.3292 21.0376 77.3292 21.0376C77.4781 22.5576 74.5285 25.7204 72.9478 27.2976C72.9478 27.1719 72.9478 27.1004 72.9478 27.1004C72.9327 27.1604 72.9096 27.2181 72.879 27.2719L72.7473 27.2004C72.7121 27.3265 72.6484 27.4428 72.5611 27.5404C72.5611 27.3262 72.5468 27.2004 72.5468 27.2004C72.2433 28.4833 66.9454 30.109 66.9454 30.109C66.9454 30.109 66.8022 30.109 66.556 30.109C65.084 30.109 61.2524 29.7776 59.4769 26.9433C58.5586 25.4079 57.3837 24.0405 56.0032 22.9004C55.5304 22.5309 54.9561 22.3136 54.3566 22.2776C49.4511 21.9633 45.4791 19.4861 44.6859 18.9576L44.5398 18.8576L44.5083 18.949C44.3222 18.6833 44.1418 18.4004 43.9728 18.109L43.8869 17.9519C45.0743 17.3572 46.0734 16.446 46.7735 15.3193C47.4736 14.1927 47.8473 12.8946 47.8531 11.569C47.8531 11.5204 47.8531 11.469 47.8531 11.4204C48.2847 10.6762 48.5118 9.83164 48.5118 8.97186V8.11472L49.6315 7.12043C50.1441 6.66614 50.6739 6.18615 50.9345 5.56043C51.0391 5.30722 51.0861 5.03397 51.0719 4.76043C51.097 4.5261 51.0618 4.28924 50.9696 4.07226C50.8774 3.85529 50.7313 3.66535 50.545 3.52043C49.6859 2.929 48.254 3.52043 47.6326 2.69758C47.3462 2.32615 47.3978 1.82043 47.2575 1.38329C46.9711 0.494717 45.9402 0.0147132 44.9865 0.000427497C44.0329 -0.0138582 43.1194 0.331858 42.203 0.591858C40.2777 1.13719 38.2685 1.32507 36.2752 1.14615C35.736 1.0504 35.1825 1.06988 34.6514 1.20329C34.327 1.33707 34.0388 1.54515 33.8099 1.8107C33.5811 2.07625 33.4181 2.39181 33.3341 2.73186C33.2633 2.98737 33.221 3.24992 33.2081 3.51472C32.4092 4.41377 31.9672 5.57318 31.9653 6.77472V8.97186C31.967 10.1448 32.3885 11.2786 33.1537 12.169C33.244 13.2028 33.5591 14.2046 34.0769 15.1046C34.5947 16.0046 35.3028 16.7812 36.152 17.3804C36.152 17.4376 36.152 17.4957 36.152 17.5547L36.1892 17.5776C36.1429 18.2587 36.0375 18.9346 35.8742 19.5976V19.4519C35.8742 19.4519 31.8651 21.5804 27.5695 21.6319H27.097C26.2496 21.6034 25.4256 21.9117 24.806 22.489C23.5345 23.6833 21.3066 25.5719 19.9377 25.5719C19.6514 25.5719 12.4234 26.9804 11.2263 27.2147L8.98979 25.029L8.92106 25.1576L8.78933 25.029C8.54476 25.0478 8.30174 25.0832 8.06195 25.1347C6.91647 23.7804 4.6255 20.6319 4.09572 16.4061C4.09572 16.4061 9.04134 10.7861 7.22289 5.549C5.67076 1.08614 1.39525 10.6519 0.18104 13.5347C-0.031367 14.0378 -0.0577574 14.5998 0.106581 15.1204L4.12436 28.0404C3.74178 29.0416 3.63211 30.1261 3.80649 31.1833H3.76067L6.68738 34.929C6.68738 34.929 8.88956 35.8662 12.3346 35.849C14.8595 35.8532 17.3618 35.374 19.7058 34.4376H20.3845L20.2556 34.4862H23.7407L25.9572 41.1747C25.8828 41.7833 24.8118 50.2776 23.9526 52.1776C23.6977 52.8124 23.5825 53.4945 23.6147 54.1776C23.6598 55.4901 23.8745 56.7913 24.2533 58.049L26.1949 57.9776L26.1205 58.129C24.4767 61.4919 21.7304 67.4833 20.1067 73.0833L17.2802 78.7976L19.3994 104.426H19.4853L19.6485 104.452C19.8776 104.486 20.2212 104.538 20.6737 104.595L20.5076 104.88L15.8369 112.595C15.8369 112.595 12.5064 119.398 19.8747 118.115C19.8747 118.115 22.5981 117.326 23.7092 112.686L28.5546 108.152C28.5546 108.152 28.7808 105.14 27.4091 103.938C27.3232 102.546 27.1056 98.4833 27.4406 97.5062C27.8444 96.3233 25.7224 82.7205 25.7224 82.7205C25.7224 82.7205 33.3914 66.849 38.0363 66.4548C38.3768 66.4309 38.7187 66.4756 39.0415 66.5862C42.8588 67.8262 47.4837 77.0348 48.8439 79.9005L48.907 80.0319V80.0576L48.9585 80.169V80.2005L49.0043 80.2976V80.3233L49.0444 80.4119V80.4319L49.0788 80.5033V80.5319L49.1046 80.5862V80.609L49.1217 80.649V80.6719V80.6976L49.1361 80.7319L49.7403 98.5748L49.8004 98.6062H49.8291L49.7775 98.9748L49.5141 100.818C49.5141 100.818 52.8445 107.818 52.6412 108.703C52.4379 109.589 54.8606 113.14 58.2913 112.155C61.722 111.169 59.6802 105.612 59.6802 105.612L56.3755 98.8176L56.2295 98.5148C56.5586 98.3132 56.8691 98.0828 57.1573 97.8262C57.1573 97.8262 56.1493 90.5319 57.1573 88.9548C58.1653 87.3776 58.4689 80.1805 58.4689 80.1805C58.4689 80.1805 57.7615 75.2519 56.5502 73.0833L51.4757 55.0119C52.9963 56.4233 54.179 56.9747 55.167 56.9376H55.3302C55.7645 56.9458 56.1933 56.8393 56.5731 56.629C56.777 56.5142 56.9689 56.3792 57.1458 56.2262C57.1796 56.1971 57.2112 56.1656 57.2403 56.1319C58.6521 54.949 55.6252 50.3147 53.9098 47.5605C52.2575 44.9033 54.5341 37.6833 54.706 37.1462C54.8588 37.0342 55.0229 36.9385 55.1957 36.8604C55.5508 36.7086 55.9319 36.6262 56.3182 36.6176C57.962 36.6747 59.9838 37.6176 62.4866 38.0919C64.226 38.3871 65.9888 38.5238 67.753 38.5005H67.8561C68.5577 38.5005 69.1934 38.4862 69.7089 38.4662C70.1792 38.4477 70.6392 38.3237 71.0548 38.1033C71.411 37.8961 71.7336 37.6359 72.0113 37.3319L76.4043 32.3804L76.2897 32.4347C76.5026 31.8732 76.5026 31.2534 76.2897 30.6919L80.9318 22.6919C81.1661 22.2977 81.3082 21.8558 81.3473 21.3991C81.3865 20.9425 81.3218 20.4829 81.158 20.0547Z" transform="translate(91.2148 37.0625)" fill="url(#paint0_linear)"/>
<path d="M13.0008 4.74053L8.32436 9.21195C7.25334 13.7834 4.62159 14.5577 4.62159 14.5577C-2.48898 15.8205 0.724098 9.1291 0.724098 9.1291L5.23443 1.5148L5.78999 0.574809C5.78999 0.574809 9.00592 -0.396615 11.148 0.186242C11.4184 0.260203 11.6683 0.395095 11.8782 0.580529C13.2213 1.74339 13.0008 4.74053 13.0008 4.74053Z" transform="translate(107.219 139.797)" fill="#444176"/>
<path d="M8.46797 14.6686C5.15467 15.64 2.81789 12.1429 3.02694 11.2657C3.23599 10.3886 0 3.5 0 3.5L0.252007 1.68286L0.486833 0L5.92787 0.388567L6.44047 1.46286L9.63064 8.16286C9.63064 8.16286 11.7813 13.6972 8.46797 14.6686Z" transform="translate(140.586 133.854)" fill="#444176"/>
<path opacity="0.1" d="M6.69248 1.35481C6.17988 2.23195 2.02464 1.78909 5.59317e-06 1.51481L0.555565 0.574813C0.555565 0.574813 3.77149 -0.396612 5.91354 0.186245C6.18399 0.260207 6.43381 0.395098 6.64378 0.580533C6.67242 1.05482 6.69248 1.35481 6.69248 1.35481Z" transform="translate(112.457 139.782)" fill="black"/>
<path opacity="0.1" d="M6.19992 1.46285C3.41354 3.31428 0.446734 1.91429 -4.19488e-06 1.68286L0.234822 -5.58036e-06L5.67586 0.388579L6.19992 1.46285Z" transform="translate(140.832 133.849)" fill="black"/>
<path d="M38.4653 37.6143C37.4916 39.1686 38.4653 46.3629 38.4653 46.3629C35.2493 49.28 31.4521 47.14 31.4521 47.14L30.8793 29.5486C30.8793 29.5486 24.5477 15.0657 20.066 15.4543C15.5843 15.8429 8.18161 31.4914 8.18161 31.4914C8.18161 31.4914 10.2263 44.9029 9.83682 46.0629C9.44736 47.2229 9.83682 52.8657 9.83682 52.8657C9.15526 54.0315 2.04468 52.8657 2.04468 52.8657L-3.84531e-06 27.5943L2.71479 21.9543C4.27551 16.4343 6.9273 10.5257 8.51379 7.21143C9.30131 5.56286 9.82824 4.55714 9.82824 4.55714L15.0115 3.48L31.8358 1.04632e-06L37.8811 21.9543C39.0495 24.0914 39.731 28.9514 39.731 28.9514C39.731 28.9514 39.4389 36.06 38.4653 37.6143Z" transform="translate(109.32 87.9714)" fill="#565387"/>
<g opacity="0.1">
<path opacity="0.1" d="M11.9731 31.6934L11.4004 14.102C11.4004 14.102 5.06876 -0.38089 0.587067 0.00768141C0.386695 0.0271588 0.189496 0.0713014 -6.29232e-06 0.139108C4.37001 1.58768 9.84254 14.102 9.84254 14.102L10.4153 31.6934C11.6102 32.3007 12.957 32.546 14.2899 32.3991C13.4819 32.3022 12.6976 32.0633 11.9731 31.6934Z" transform="translate(130.355 103.418)" fill="black"/>
<path opacity="0.1" d="M3.60254 52.8857L1.55785 27.6143L4.2841 21.9657C5.84482 16.4457 8.49661 10.5371 10.0831 7.22286C10.8706 5.57429 11.3975 4.56857 11.3975 4.56857L16.5808 3.49143L31.9389 0.305715L31.8559 -1.39509e-06L15.023 3.49143L9.83969 4.56857C9.83969 4.56857 9.31276 5.57429 8.52525 7.22286C6.93303 10.5371 4.28696 16.4571 2.72625 21.9657L2.44701e-06 27.6029L2.04468 52.8743C2.04468 52.8743 5.92788 53.5114 8.23029 53.3714C6.68049 53.2875 5.13592 53.1254 3.60254 52.8857Z" transform="translate(109.309 87.96)" fill="black"/>
</g>
<path d="M4.8487 -2.44141e-06C4.8487 -2.44141e-06 -0.704025 0.285719 0.074902 6.12286L1.63276 6.31715L3.96954 3.79143L5.13794 1.65429V1.16857L4.8487 -2.44141e-06Z" transform="translate(96.2188 62.5571)" fill="#CED2DF"/>
<path opacity="0.1" d="M4.8487 -2.44141e-06C4.8487 -2.44141e-06 -0.704025 0.285719 0.074902 6.12286L1.63276 6.31715L3.96954 3.79143L5.13794 1.65429V1.16857L4.8487 -2.44141e-06Z" transform="translate(96.2188 62.5571)" fill="black"/>
<path d="M0.283513 6.97545e-07C0.283513 6.97545e-07 4.86543 2.42857 3.69418 5.24857L2.23369 5.82L0.286362 4.75143L-8.38976e-06 2.22572L0.194739 0.477139L0.283513 6.97545e-07Z" transform="translate(162.555 64.6943)" fill="#CED2DF"/>
<path opacity="0.1" d="M0.283513 6.97545e-07C0.283513 6.97545e-07 4.86543 2.42857 3.69418 5.24857L2.23369 5.82L0.286362 4.75143L-8.38976e-06 2.22572L0.194739 0.477139L0.283513 6.97545e-07Z" transform="translate(162.555 64.6943)" fill="black"/>
<path d="M9.93705 -2.09263e-06H6.03955C2.704 -2.09263e-06 -2.09744e-06 2.69781 -2.09744e-06 6.02572C-2.09744e-06 9.35363 2.704 12.0514 6.03955 12.0514H9.93705C13.2726 12.0514 15.9766 9.35363 15.9766 6.02572C15.9766 2.69781 13.2726 -2.09263e-06 9.93705 -2.09263e-06Z" transform="translate(123.484 39.6172)" fill="#88455E"/>
<path d="M8.43334 21.1907L5.02267 26.6193L4.7363 25.6536L0.102828 10.5907C-0.0556325 10.0773 -0.0303249 9.5248 0.17442 9.02788C1.34568 6.18788 5.47513 -3.25784 6.97285 1.15645C8.72544 6.29931 3.95165 11.8479 3.95165 11.8479C4.49575 16.3507 7.03013 19.6136 8.0267 20.745C8.27871 21.0393 8.43334 21.1907 8.43334 21.1907Z" transform="translate(92.5938 42.1921)" fill="#EC8C9C"/>
<path d="M-7.69061e-06 17.2842C-7.69061e-06 17.2842 5.35798 12.2299 5.15466 10.1899C5.15466 10.1899 0.0887768 2.02701 2.62315 0.18987C4.62775 -1.27299 7.67186 6.09844 8.85171 9.23273C9.00768 9.65023 9.0703 10.0967 9.03518 10.5409C9.00006 10.9851 8.86804 11.4162 8.64838 11.8042L2.24514 23.1156L-7.69061e-06 17.2842Z" transform="translate(162.109 48.4302)" fill="#EC8C9C"/>
<path d="M2.31667 0.0114293C2.31667 0.0114293 3.29034 6.23143 0.466733 8.56572C-2.35688 10.9 8.55383 10.8857 8.55383 10.8857L12.4513 7.28858C12.4513 7.28858 7.96962 3.10857 9.33275 -1.74386e-06L2.31667 0.0114293Z" transform="translate(125.109 51.6113)" fill="#EC8C9C"/>
<path opacity="0.1" d="M8.04272 0.388568C8.04272 0.388568 12.2323 3.5 16.4191 1.04632e-06L23.2375 14.0943L22.8481 31.2972C22.8481 31.2972 8.72142 38.5857 2.8766 34.1172C-2.96822 29.6486 1.90293 27.3143 1.90293 27.3143L0.539809 14.0971L2.00031 5.54286C2.00031 5.54286 4.62919 1.46 4.82678 1.46C5.02438 1.46 8.04272 0.388568 8.04272 0.388568Z" transform="translate(119.188 58.3286)" fill="black"/>
<path d="M8.03985 0.388571C8.03985 0.388571 12.2295 3.50572 16.4191 3.13895e-06L23.2375 14.0943L22.8481 31.2972C22.8481 31.2972 8.72142 38.5857 2.8766 34.1172C-2.96822 29.6486 1.90294 27.3143 1.90294 27.3143L0.539812 14.0972L2.00031 5.54286C2.00031 5.54286 4.62919 1.46 4.82679 1.46C5.02438 1.46 8.03985 0.388571 8.03985 0.388571Z" transform="translate(119.191 58.1343)" fill="#EBF1F6"/>
<path opacity="0.1" d="M30.7848 0C30.7848 0 26.8129 2.25715 22.5001 2.14572C22.0956 2.13308 21.6925 2.20084 21.3145 2.34505C20.9364 2.48926 20.5909 2.70704 20.2979 2.98572C19.0694 4.16286 16.9188 6.02572 15.5871 6.02572C15.3008 6.02572 7.01321 7.67715 7.01321 7.67715L4.82247 5.49143C4.82247 5.49143 1.55785 11.8572 -1.39829e-06 11.5657L2.82647 15.26C2.82647 15.26 8.18447 17.5914 15.1977 14.7743H19.2899L21.432 21.3829C21.432 21.3829 20.3609 30.3257 19.4846 32.2686C18.6083 34.2114 19.771 38.0029 19.771 38.0029L27.4658 37.7172C27.4658 37.7172 27.8552 33.9257 28.4394 33.4314C29.0236 32.9372 26.3948 16.2286 26.3948 16.2286C26.3948 16.2286 24.6422 6.8 31.0712 3.4L30.7848 0Z" transform="translate(96.4453 57.0686)" fill="black"/>
<path opacity="0.1" d="M6.49488 1.39509e-06C6.21151 1.15303 6.00961 2.32448 5.89064 3.50571L-6.99146e-07 3.72857C0.787518 2.08 1.31445 1.07429 1.31445 1.07429L6.49488 1.39509e-06Z" transform="translate(117.836 91.4629)" fill="black"/>
<path opacity="0.1" d="M3.69704 0.448573L0.286368 5.87715L-2.44701e-06 4.91143C1.25144 3.67143 2.71765 1.08 3.30185 -3.48772e-07C3.5424 0.297143 3.69704 0.448573 3.69704 0.448573Z" transform="translate(97.332 62.9343)" fill="black"/>
<path d="M30.9881 0C30.9881 0 26.8186 2.25715 22.5087 2.14572C22.1042 2.13308 21.7011 2.20084 21.3231 2.34505C20.945 2.48926 20.5994 2.70704 20.3065 2.98572C19.078 4.16286 16.9274 6.02572 15.5957 6.02572C15.3094 6.02572 7.0218 7.67715 7.0218 7.67715L4.82248 5.48857C4.82248 5.48857 1.55786 11.8543 1.04872e-06 11.5629L2.82648 15.2571C2.82648 15.2571 8.18446 17.5886 15.1977 14.7714H19.2899L21.432 21.3772C21.432 21.3772 20.3609 30.32 19.4846 32.2629C18.6083 34.2057 19.771 37.9972 19.771 37.9972L27.4658 37.7114C27.4658 37.7114 27.8552 33.92 28.4394 33.4257C29.0236 32.9314 26.3948 16.2229 26.3948 16.2229C26.3948 16.2229 24.6422 6.79429 31.0712 3.39429L30.9881 0Z" transform="translate(96.2422 57.0686)" fill="#CED2DF"/>
<path opacity="0.1" d="M1.34308 6.97545e-07C1.34308 6.97545e-07 5.31789 3.02286 10.6243 3.37143C11.2049 3.40777 11.7601 3.62234 12.2137 3.98572C13.552 5.11845 14.6862 6.47131 15.5671 7.98572C17.7091 11.4857 22.9698 11.0971 22.9698 11.0971C22.9698 11.0971 28.0844 9.49429 28.3764 8.24C28.3764 8.24 28.5225 15.0972 31.7384 13.44L27.5087 18.3029C27.2421 18.6101 26.9153 18.8595 26.5484 19.0359C26.1815 19.2123 25.7822 19.3119 25.3753 19.3286C23.7859 19.3914 21.0253 19.4114 18.6943 18.96C15.1862 18.28 12.6547 16.6286 10.8048 18.0857C10.8048 18.0857 8.37061 25.6657 10.0258 28.3886C11.6811 31.1114 14.6078 35.6772 13.2418 36.8457C11.8758 38.0143 10.2206 37.9143 7.49431 35.0972C4.76806 32.28 4.4731 27.5172 4.4731 27.5172L5.15467 15.2714C5.15467 15.2714 2.52579 6.03714 6.99146e-07 4.19143L1.34308 6.97545e-07Z" transform="translate(134.266 56.48)" fill="black"/>
<path opacity="0.1" d="M31.747 13.2229L27.5059 18.1057C27.224 18.4296 26.8753 18.6889 26.4835 18.8657C26.1353 19.0225 25.7599 19.1108 25.3781 19.1257C23.7888 19.1914 21.0282 19.2114 18.6971 18.7572C15.4153 18.12 12.9869 16.6343 11.1713 17.6371C11.0426 17.7079 10.92 17.7891 10.8048 17.88C10.8048 17.88 8.37061 25.46 10.0258 28.1829C11.6811 30.9057 14.6078 35.4714 13.2418 36.64C13.0131 36.8406 12.7566 37.0071 12.48 37.1343C11.2544 37.6857 9.73373 37.2086 7.49431 34.8914C4.76806 32.0714 4.47311 27.3114 4.47311 27.3114L5.15467 15.0657C5.15467 15.0657 2.52579 5.83143 2.79659e-06 3.98572L1.11399 -3.13895e-06C1.88146 0.519997 5.71309 2.96286 10.4497 3.27429C11.0303 3.31064 11.5854 3.5252 12.039 3.88857C13.3771 5.02146 14.5113 6.37429 15.3924 7.88858C17.5345 11.3886 22.7951 11 22.7951 11C24.0562 10.5986 25.2878 10.1098 26.4807 9.53714C27.2281 9.17143 27.8867 8.77143 28.1989 8.39429C28.2865 8.29579 28.3502 8.17847 28.385 8.05144C28.385 8.05144 28.5339 14.8743 31.747 13.2229Z" transform="translate(134.645 56.5742)" fill="black"/>
<path d="M31.7556 13.4114L27.5173 18.3C27.2843 18.5683 27.0049 18.7928 26.6926 18.9629C26.2924 19.1797 25.8475 19.3019 25.3925 19.32C23.8031 19.3857 21.0425 19.4057 18.7114 18.9514C15.5471 18.3372 13.173 16.9314 11.3832 17.7343C11.1787 17.8231 10.9863 17.9374 10.8105 18.0743C10.8105 18.0743 8.37634 25.6543 10.0316 28.3772C11.6868 31.1 14.6135 35.6657 13.2475 36.8343C13.0708 36.986 12.8789 37.1191 12.6748 37.2314C11.4147 37.9257 9.85686 37.5172 7.4943 35.0857C4.76806 32.2657 4.4731 27.5057 4.4731 27.5057L5.15466 15.26C5.15466 15.26 2.52578 6.02571 -3.49573e-06 4.18L1.16839 3.48772e-06L1.30871 0.0971453C2.07618 0.617146 5.90781 3.06 10.6444 3.37143C11.225 3.40778 11.7801 3.62234 12.2337 3.98571C13.5719 5.11861 14.706 6.47143 15.5871 7.98572C17.7292 11.4857 22.9898 11.0971 22.9898 11.0971C24.251 10.6957 25.4825 10.2069 26.6754 9.63429C27.5603 9.18287 28.2819 8.68857 28.3936 8.23715C28.3936 8.23715 28.3936 8.32572 28.3936 8.48287C28.4795 9.66287 28.9091 14.8714 31.7556 13.4114Z" transform="translate(134.441 56.4829)" fill="#CED2DF"/>
<path opacity="0.1" d="M7.15925 3.48773e-06H-6.99146e-06C0.157446 1.13569 0.202537 2.28408 0.134596 3.42858C1.22749 4.19586 2.50914 4.65177 3.84205 4.74741C5.17496 4.84304 6.50881 4.57479 7.7005 3.97143C7.01321 2.70286 6.5951 1.26286 7.15925 3.48773e-06Z" transform="translate(127.367 51.7686)" fill="black"/>
<path d="M7.11058 14.1886C11.0376 14.1886 14.2212 11.0124 14.2212 7.09429C14.2212 3.17622 11.0376 0 7.11058 0C3.18352 0 0 3.17622 0 7.09429C0 11.0124 3.18352 14.1886 7.11058 14.1886Z" transform="translate(124.602 42.1943)" fill="#EC8C9C"/>
<path opacity="0.1" d="M5.5691 9.946C6.36235 9.85172 7.1556 9.57172 7.93739 9.72886C8.64759 9.87172 9.25183 10.3603 9.96203 10.5089C11.3309 10.7946 12.6024 9.78886 13.6362 8.85171L15.8699 6.82315C16.3653 6.37458 16.875 5.90315 17.1299 5.286C17.3847 4.66886 17.296 3.85743 16.7519 3.46885C15.9357 2.89743 14.5296 3.46886 13.9397 2.65743C13.6734 2.29171 13.7135 1.80028 13.576 1.36314C13.2897 0.488854 12.3045 0.0117097 11.3824 0.000281082C10.4603 -0.0111475 9.5783 0.325996 8.69628 0.57171C6.83817 1.10947 4.89541 1.29459 2.96887 1.11743C2.44892 1.02245 1.91451 1.04097 1.40242 1.17172C1.0872 1.30597 0.807953 1.51213 0.587124 1.77365C0.366294 2.03516 0.21004 2.34471 0.130931 2.67743C-0.31008 4.23171 0.443069 6.73743 1.19909 8.12886C1.9551 9.52028 4.05993 10.1317 5.5691 9.946Z" transform="translate(124.668 38.0796)" fill="black"/>
<path d="M5.5691 9.94601C6.36235 9.85172 7.1556 9.57172 7.93739 9.72886C8.64759 9.87172 9.25183 10.3603 9.96203 10.5089C11.3309 10.7946 12.6024 9.78886 13.6362 8.85172L15.8699 6.82314C16.3653 6.37457 16.875 5.90314 17.1299 5.286C17.3847 4.66885 17.296 3.85743 16.7519 3.46886C15.9357 2.89743 14.5296 3.46886 13.9397 2.65743C13.6734 2.29171 13.7135 1.80029 13.576 1.36314C13.2897 0.488856 12.3045 0.0117118 11.3824 0.000283174C10.4603 -0.0111454 9.5783 0.325998 8.69628 0.571712C6.83817 1.10947 4.89541 1.29458 2.96887 1.11743C2.44892 1.02245 1.91451 1.04097 1.40242 1.17171C1.0872 1.30597 0.807953 1.51213 0.587124 1.77364C0.366294 2.03515 0.21004 2.34471 0.130931 2.67743C-0.31008 4.23172 0.443069 6.73743 1.19909 8.12886C1.9551 9.52029 4.05993 10.1174 5.5691 9.94601Z" transform="translate(124.668 37.8853)" fill="#88455E"/>
<path opacity="0.1" d="M-3.49573e-06 0C-3.49573e-06 0 1.55786 0.194282 2.33679 1.16571C3.11572 2.13714 4.47883 2.42857 4.47883 2.42857" transform="translate(117.832 78.4971)" fill="black"/>
<path opacity="0.1" d="M0.0554611 -1.04632e-06C0.0554611 -1.04632e-06 1.32695 2.83143 0.542294 3.11714C-0.242361 3.40286 0.0554611 5.44858 0.0554611 5.44858" transform="translate(103.746 65.6655)" fill="black"/>
<g opacity="0.1">
<path opacity="0.1" d="M0.0887738 5.43292C0.0887738 5.43292 8.36774 3.78149 8.65411 3.78149C9.9886 3.78149 12.1364 1.91863 13.3649 0.741488C13.7385 0.384381 14.1982 0.129499 14.6994 0.00148908H14.5934C14.1889 -0.0111455 13.7858 0.0566127 13.4078 0.200821C13.0297 0.34503 12.6842 0.56281 12.3912 0.84149C11.1627 2.01863 9.01207 3.8815 7.68045 3.8815C7.44849 3.8815 2.15064 4.93007 -3.49573e-07 5.35578L0.0887738 5.43292Z" transform="translate(104.152 59.2615)" fill="black"/>
<path opacity="0.1" d="M6.34596 0.362855V1.04632e-06C4.35435 1.01318 2.2112 1.6973 0 2.02572C2.19391 1.83092 4.33924 1.26877 6.34596 0.362855Z" transform="translate(120.895 57.1143)" fill="black"/>
<path opacity="0.1" d="M4.8282 23.2286C4.8282 23.2286 3.65981 19.4372 4.54183 17.4943C5.42385 15.5514 6.48916 6.60857 6.48916 6.60857L4.35283 -3.13895e-06H0.249137L-3.49573e-06 0.0971387H3.36485L5.49831 6.70857C5.49831 6.70857 4.42729 15.6514 3.551 17.5943C2.6747 19.5372 3.83737 23.3286 3.83737 23.3286L11.5321 23.0429V22.9829L4.8282 23.2286Z" transform="translate(112.176 71.7886)" fill="black"/>
</g>
<g opacity="0.1">
<path opacity="0.1" d="M8.77439 8.78C8.59772 8.93174 8.40579 9.06483 8.20165 9.17715C6.94162 9.87144 5.38376 9.46286 3.02121 7.03143C0.856247 4.79429 0.226239 1.31715 0.0572804 3.48772e-06L2.79659e-06 1.00572C2.79659e-06 1.00572 0.28637 5.76857 3.02121 8.58572C5.38376 11.0257 6.94162 11.4257 8.20165 10.7314C8.40579 10.6191 8.59772 10.486 8.77439 10.3343C9.1839 9.98286 9.2068 9.32286 8.99202 8.50001C8.93879 8.60681 8.86482 8.70198 8.77439 8.78Z" transform="translate(139.012 82.9827)" fill="black"/>
<path opacity="0.1" d="M20.8213 0.139998L18.0635 3.32C17.8304 3.58829 17.5511 3.81279 17.2388 3.98286C16.8385 4.19971 16.3937 4.3219 15.9386 4.34C14.3493 4.40572 11.5887 4.42572 9.25762 3.97143C6.09322 3.35714 3.71921 1.95143 1.92939 2.75428C1.72489 2.84311 1.53246 2.95735 1.35665 3.09428C1.35665 3.09428 -0.215513 7.99143 0.0250379 11.3257C0.211179 8.20857 1.35665 4.64857 1.35665 4.64857C1.53246 4.51163 1.72489 4.3974 1.92939 4.30857C3.72207 3.50571 6.09322 4.91143 9.25762 5.52572C11.5887 5.97715 14.3464 5.95715 15.9386 5.89429C16.3937 5.87619 16.8385 5.75399 17.2388 5.53715C17.5504 5.36964 17.8297 5.14808 18.0635 4.88286L22.3046 1.04632e-06C22.0851 0.136352 21.8369 0.219969 21.5795 0.244264C21.3221 0.268559 21.0625 0.232865 20.8213 0.139998Z" transform="translate(144 69.8999)" fill="black"/>
</g>
<path d="M-2.80687e-06 4.20741e-06C0.0341171 0.0330436 0.0779753 0.0542261 0.125078 0.0604332C0.172181 0.0666403 0.220029 0.0575411 0.261553 0.0344699C0.17314 0.0360145 0.0849877 0.0243995 -2.80687e-06 4.20741e-06Z" transform="translate(40.2812 105.037)" fill="url(#paint1_linear)"/>
<path d="M69.465 14.3614C68.9495 14.2128 68.2136 13.9699 67.3287 13.6614C68.2482 12.481 68.9211 11.1286 69.3075 9.68421L69.233 9.71278C69.2588 9.62421 69.2846 9.5385 69.3075 9.44707C67.6093 10.1356 65.7307 8.96993 64.5337 7.47278C63.3367 5.97564 62.5291 4.1185 61.2175 2.74135C60.671 2.19351 60.0831 1.68822 59.4592 1.22992C59.0726 0.944208 58.6574 0.621353 58.1849 0.607067C57.4203 0.58421 56.8218 1.33278 56.0858 1.55278C55.6015 1.66152 55.0973 1.64282 54.6224 1.49849C52.7238 1.06421 50.8996 0.261349 48.9609 0.0499203C47.9236 -0.0778942 46.8708 0.0405579 45.8881 0.395632C44.9145 0.764204 44.4706 1.49849 43.6831 2.08707C42.824 2.71849 41.1458 2.70421 40.1464 2.81563C38.9336 2.95384 37.7124 3.00445 36.4923 2.96706C35.7912 2.9064 35.0852 2.93232 34.3904 3.04421C32.9385 3.36135 31.7729 4.51278 30.6847 5.61564C30.3877 5.86513 30.1739 6.19901 30.0719 6.57278C30.0579 6.67804 30.0579 6.78467 30.0719 6.88992C30.0609 7.17798 30.1107 7.46512 30.2179 7.73278C30.5529 8.72452 31.0263 9.66423 31.624 10.5242C32.0679 11.1585 32.5862 11.7556 32.8382 12.5071C32.9577 12.8765 33.0204 13.2618 33.0244 13.6499C33.012 14.0621 32.9689 14.4727 32.8955 14.8785C32.7034 16.0003 32.3874 17.0975 31.9534 18.1499C31.6839 18.6902 31.4985 19.2682 31.4035 19.8642C31.3953 19.986 31.3953 20.1082 31.4035 20.2299C31.3319 22.1156 33.2392 23.4728 33.6086 25.3471C33.6389 25.5026 33.6571 25.6602 33.663 25.8185C33.6229 26.9871 32.9556 28.1299 31.9705 28.5842C32.0564 28.6185 32.1452 28.6471 32.234 28.6756C32.1493 28.7287 32.0613 28.7764 31.9705 28.8185C32.1509 28.8871 32.3342 28.9471 32.5204 28.9956C31.4008 29.9686 30.4598 31.1288 29.7397 32.4242C26.4264 38.5785 3.98642 50.6328 3.98642 50.6328L4.31861 50.8214L4.04942 50.9957C2.10783 52.2842 -2.44833 56.0414 1.66968 60.7928C1.66968 60.7928 4.88562 55.7299 7.13935 53.5728C7.23958 53.4757 7.33981 53.3871 7.42572 53.3042C7.47524 53.3803 7.50843 53.4658 7.52322 53.5553C7.538 53.6448 7.53406 53.7363 7.51163 53.8242L22.2654 45.5528C22.2654 45.5528 27.5089 41.8899 28.9722 41.0642C30.0022 40.424 31.1231 39.9424 32.297 39.6357L32.1252 39.7071C32.6768 39.5557 33.2455 39.475 33.8176 39.4671C36.4293 39.5071 39.2587 41.4157 40.1894 48.9728C41.4379 59.0928 40.8595 60.9185 40.4585 61.1671C40.4091 61.1634 40.3602 61.1548 40.3125 61.1414C40.3249 61.1522 40.3383 61.1618 40.3526 61.17C40.2983 61.1661 40.2445 61.1566 40.1922 61.1414C40.2211 61.1678 40.2562 61.1864 40.2943 61.1954C40.3324 61.2044 40.3722 61.2035 40.4099 61.1928C40.437 61.201 40.4655 61.2035 40.4936 61.2C40.5217 61.1966 40.5488 61.1873 40.5731 61.1728C40.6389 61.1766 40.7049 61.1766 40.7707 61.1728C40.7707 61.2661 40.764 61.3614 40.7506 61.4585C40.7306 61.4585 40.6332 61.5128 40.7506 61.5185C40.7191 62.09 40.722 62.71 40.7506 63.3585C39.4534 63.43 38.1561 63.5071 37.0278 63.5757L37.1281 63.0414L37.1739 62.8014C38.1704 62.7214 39.1155 62.43 39.2272 61.6242C39.4706 59.8528 37.0336 58.9071 34.9602 58.7899C32.8869 58.6728 20.4527 59.4985 20.4527 59.4985C20.4527 59.4985 18.5884 61.9071 24.502 62.6414C24.6776 62.7328 24.86 62.828 25.049 62.9271C27.3657 64.2442 30.5072 66.67 32.0135 67.8642L32.2225 68.03L31.5467 68.5785C35.2037 69.4042 38.7403 83.3471 40.6905 89.7214C42.6407 96.0957 46.9076 95.8643 50.4443 94.9185C53.7576 94.0328 54.1671 84.4328 54.2215 83.2271V83.1042L60.115 90.3671L60.5617 90.9185C60.7336 91.0081 60.9035 91.0919 61.0715 91.17C65.5331 93.2871 70.4616 89.2271 69.0612 84.5985C67.6437 79.9328 65.4444 73.0328 63.9781 70.1157C62.7496 67.6728 61.1631 63.6157 60.2009 61.0757C60.3259 61.0256 60.4474 60.9674 60.5646 60.9014C60.5646 60.9014 60.5417 60.7871 60.5045 60.5785L60.5646 60.5471C60.5646 60.5471 59.1328 53.1985 59.0698 47.9757C59.0698 47.8842 59.0698 47.789 59.0698 47.6899C59.0698 47.6328 59.0698 47.5757 59.0698 47.5214C60.1351 47.2785 60.8109 47.1842 60.8109 47.1842L60.8309 46.9557L60.7078 46.9814L61.3006 40.2128C61.3006 40.2128 63.477 35.5928 61.8103 33.6699C61.3036 33.1076 60.9653 32.4146 60.8338 31.6699C60.5474 29.9014 60.8338 26.9499 64.7141 24.4985C70.6878 20.7185 73.0189 17.6414 73.0189 17.6414C73.0189 17.6414 73.122 15.4356 69.465 14.3614ZM57.6007 19.0585V15.9299C58.7089 15.8756 59.8401 16.0042 60.9541 15.9299C61.5009 15.8918 62.0428 15.8009 62.5721 15.6585L62.8413 15.8442C61.2115 17.095 59.4551 18.1722 57.6007 19.0585ZM40.6619 68.0985C41.1 68.4014 41.541 68.7157 41.9734 69.0328C42.2426 70.5757 42.4803 71.6642 42.4975 71.7414C42.0033 70.4715 41.3886 69.2517 40.6619 68.0985Z" transform="translate(0 43.3472)" fill="url(#paint2_linear)"/>
<path d="M13.6427 2.09263e-06L13.385 1.39714L13.1874 2.46572L12.8265 4.42L9.32708 6.86287C9.32708 6.86287 9.01208 6.59428 8.49089 6.16857C7.05903 4.99142 4.04355 2.60286 1.82991 1.31143C1.26105 0.949027 0.645441 0.665474 1.57308e-06 0.468569L13.6427 2.09263e-06Z" transform="translate(36.4883 108.874)" fill="#FFBDC6"/>
<path opacity="0.1" d="M13.6455 2.09263e-06L13.3878 1.39714C12.6165 1.43995 11.8427 1.40068 11.0797 1.28L2.91525 1.39714C2.52865 1.37428 2.16782 1.34286 1.82991 1.30857C1.26105 0.946167 0.645438 0.662622 -1.22351e-06 0.465718L13.6455 2.09263e-06Z" transform="translate(36.4844 108.874)" fill="black"/>
<path d="M13.9122 3.85976C13.9122 3.85976 17.9959 4.5569 18.2278 2.81118C18.4598 1.06547 16.1287 0.145475 14.1499 0.0140467C12.1711 -0.117382 0.266676 0.716902 0.266676 0.716902C0.266676 0.716902 -1.83242 3.50833 5.74781 3.97404L13.9122 3.85976Z" transform="translate(33.6523 106.066)" fill="#7679B4"/>
<path opacity="0.1" d="M13.6427 2.09263e-06L13.385 1.39714L13.1874 2.46572L12.8265 4.42L9.32708 6.86287C9.32708 6.86287 9.01208 6.59428 8.49089 6.16857C7.05903 4.99142 4.04355 2.60286 1.82991 1.31143C1.26105 0.949027 0.645441 0.665474 1.57308e-06 0.468569L13.6427 2.09263e-06Z" transform="translate(36.4883 108.874)" fill="black"/>
<path opacity="0.1" d="M13.6455 2.09263e-06L13.3878 1.39714C12.6165 1.43995 11.8427 1.40068 11.0797 1.28L2.91525 1.39714C2.52865 1.37428 2.16782 1.34286 1.82991 1.30857C1.26105 0.946167 0.645438 0.662622 -1.22351e-06 0.465718L13.6455 2.09263e-06Z" transform="translate(36.4844 108.874)" fill="black"/>
<path opacity="0.1" d="M13.9122 3.85976C13.9122 3.85976 17.9959 4.5569 18.2278 2.81118C18.4598 1.06547 16.1287 0.145475 14.1499 0.0140467C12.1711 -0.117382 0.266676 0.716902 0.266676 0.716902C0.266676 0.716902 -1.83242 3.50833 5.74781 3.97404L13.9122 3.85976Z" transform="translate(33.6523 106.066)" fill="black"/>
<path d="M21.3432 0H0V25.2514H21.3432V0Z" transform="translate(35.1406 52.5513)" fill="#A66477"/>
<path opacity="0.1" d="M21.3432 0H0V25.2514H21.3432V0Z" transform="translate(35.1406 52.5513)" fill="black"/>
<path d="M8.12914 2.09714C7.7769 2.18572 7.33017 2.52286 6.82902 3.01428C4.67265 5.14 1.59703 10.1257 1.59703 10.1257C-2.34343 5.44572 2.01799 1.74572 3.88799 0.474288C4.34046 0.165716 4.64401 1.04632e-06 4.64401 1.04632e-06L8.12914 2.09714Z" transform="translate(1.99609 93.6855)" fill="#FFBDC6"/>
<path d="M11.3145 -1.04632e-06C11.3145 -1.04632e-06 12.3655 7.33143 15.9795 9.07714C19.5935 10.8229 11.3145 14.08 11.3145 14.08L-6.99146e-07 9.89143C-6.99146e-07 9.89143 6.4147 7.79715 5.13176 1.62857L11.3145 -1.04632e-06Z" transform="translate(38.582 60.5227)" fill="#FFBDC6"/>
<path d="M13.6427 3.48772e-06L13.385 1.39714L13.1874 2.46571L12.8265 4.42001L9.32708 6.86286C9.32708 6.86286 9.01207 6.59429 8.49088 6.16858C7.05903 4.99143 4.04355 2.60286 1.82991 1.31143C1.26105 0.949028 0.645439 0.665475 1.74787e-07 0.468571L13.6427 3.48772e-06Z" transform="translate(24.1367 104.626)" fill="#FFBDC6"/>
<path opacity="0.1" d="M13.6455 3.48773e-06L13.3878 1.39714C12.6164 1.43995 11.8427 1.40068 11.0797 1.28L2.91525 1.39714C2.52865 1.37429 2.16783 1.34286 1.82991 1.30857C1.26105 0.946168 0.645441 0.662615 1.74787e-06 0.465711L13.6455 3.48773e-06Z" transform="translate(24.1328 104.626)" fill="black"/>
<path d="M13.9151 3.85103C13.9151 3.85103 17.9987 4.54818 18.2307 2.80246C18.4627 1.05675 16.1316 0.125315 14.147 0.0110288C12.1625 -0.103257 0.266674 0.708173 0.266674 0.708173C0.266674 0.708173 -1.83242 3.4996 5.7478 3.96532L13.9151 3.85103Z" transform="translate(21.2852 101.823)" fill="#7679B4"/>
<path opacity="0.1" d="M4.69647 0.0828561L4.33565 2.03714L0.836201 4.48C0.836201 4.48 0.521194 4.21143 3.49573e-07 3.78571L4.62775 -3.48772e-06L4.69647 0.0828561Z" transform="translate(32.6133 107.011)" fill="black"/>
<path d="M28.239 31.9C28.0786 31.8219 27.9163 31.7391 27.7522 31.6515L27.3255 31.1086L21.6897 23.9657V24.0914C21.6525 25.2772 21.2458 34.7343 18.0786 35.6057C14.6965 36.5372 10.6129 36.7686 8.74862 30.4857C6.88435 24.2029 3.49945 10.4714 -1.74787e-07 9.65715L5.18903 5.40857C5.18903 5.40857 8.62548 9.40858 10.0287 13.26C9.97715 13.0143 7.60313 1.95428 9.56191 -2.09263e-06H26.5895C26.5895 -2.09263e-06 29.2126 7.46858 31.0225 11.1714C32.4257 14.0457 34.5305 20.84 35.8908 25.4372C37.2367 29.9857 32.5345 33.9857 28.239 31.9Z" transform="translate(32.1602 101.834)" fill="#7679B4"/>
<path opacity="0.1" d="M19.0033 16.2857C16.3772 17.8372 4.83079 17.2057 1.06788 16.9543L0.0455478 16.88C-0.0661367 16.88 0.0627293 16.8171 0.0627293 16.8171L0.168685 15.76L2.96652 8.66286L17.9551 0C17.6516 0.911429 17.5485 2.30857 17.5743 3.91143C17.6487 9.04858 19.0033 16.2857 19.0033 16.2857Z" transform="translate(40.9219 87.6399)" fill="black"/>
<path d="M19.1267 16.28C16.5007 17.8314 4.95421 17.2 1.1913 16.9486L0.168963 16.8743H-3.49573e-06L0.186144 16.8257L1.10826 16.5829L3.08994 8.66857L18.0786 -6.97545e-07C17.775 0.911428 17.6719 2.30857 17.6977 3.91143C17.7721 9.04 19.1267 16.28 19.1267 16.28Z" transform="translate(40.7969 87.3)" fill="#F2F1F2"/>
<path opacity="0.1" d="M17.5259 3.92571C14.4789 4.62571 7.77209 6.68571 5.19476 11.64C3.47654 14.9486 2.04468 16.3686 1.02234 16.9629L-1.74787e-06 16.8886L0.0171798 16.8257L0.939293 16.5829L2.92098 8.66857L17.9096 3.48772e-07C17.6003 0.937144 17.5001 2.32286 17.5259 3.92571Z" transform="translate(40.9727 87.2742)" fill="black"/>
<path opacity="0.1" d="M0.75602 3.8365e-06L4.25546 2.09429C3.90323 2.18286 3.45649 2.52 2.95534 3.01143C2.66897 2.15428 0.830476 0.97714 2.09744e-06 0.474282C0.452467 0.165711 0.75602 3.8365e-06 0.75602 3.8365e-06Z" transform="translate(5.86719 93.6885)" fill="black"/>
<path opacity="0.1" d="M0.247184 0.0315938C0.208013 0.0534179 0.162878 0.0621299 0.118393 0.0564439C0.0739074 0.0507578 0.0324173 0.030977 4.2103e-06 3.15556e-06C0.0803836 0.0226844 0.16368 0.0333276 0.247184 0.0315938Z" transform="translate(40.1094 104.277)" fill="black"/>
<path d="M42.4573 17.7886C42.4573 17.7886 39.3072 18.1371 37.0907 15.8114C37.0907 15.8114 27.7607 18.4886 24.6107 24.54C21.4606 30.5914 1.74787e-06 42.46 1.74787e-06 42.46C1.74787e-06 42.46 3.72282 44.5543 3.38204 45.6029L17.4944 37.4572C17.4944 37.4572 22.5087 33.8486 23.9091 33.0343C25.3094 32.22 33.007 27.2172 34.6394 40.8314C36.2717 54.4457 34.6394 52.8315 34.6394 52.8315C34.6394 52.8315 36.9733 53.6457 40.3668 47.1172C43.7603 40.5886 54.2471 39.0886 54.2471 39.0886L54.8199 32.2314C54.8199 32.2314 56.9018 27.6829 55.3067 25.7857C54.8203 25.2275 54.4973 24.5464 54.3731 23.8172C54.1068 22.0743 54.3731 19.1686 58.096 16.7543C63.8234 13.04 66.0284 10.0057 66.0284 10.0057C66.0284 10.0057 66.1458 7.79429 62.6464 6.74857C59.1469 5.70286 44.9172 3.48772e-07 44.9172 3.48772e-07L44.4504 1.97715L55.6475 9.89143C55.6475 9.89143 50.049 14.4286 45.6245 14.3143C45.6073 14.2943 46.4235 17.6714 42.4573 17.7886Z" transform="translate(5.80469 51.3457)" fill="#565388"/>
<path opacity="0.1" d="M6.96739 2.85715C6.69162 1.91949 6.4764 0.965147 6.32306 2.79018e-06L0.140324 1.64C0.410981 2.81711 0.362541 4.0449 -3.84531e-06 5.19715C1.26357 5.53348 2.59849 5.4906 3.83777 5.07388C5.07704 4.65716 6.16565 3.8851 6.96739 2.85429V2.85715Z" transform="translate(43.457 60.8572)" fill="black"/>
<path d="M6.64952 13.2686C10.3219 13.2686 13.299 10.2983 13.299 6.63429C13.299 2.97027 10.3219 0 6.64952 0C2.97709 0 0 2.97027 0 6.63429C0 10.2983 2.97709 13.2686 6.64952 13.2686Z" transform="translate(38.6406 52.6655)" fill="#FFBDC6"/>
<path opacity="0.1" d="M18.0967 0.0584879C19.941 0.267059 21.6964 1.05849 23.512 1.48706C23.9657 1.62901 24.449 1.64775 24.9124 1.54135C25.6168 1.3242 26.1896 0.587057 26.9169 0.609915C27.3665 0.609915 27.7761 0.929913 28.1369 1.2242C28.7346 1.67667 29.2966 2.17433 29.8179 2.71278C31.0693 4.06992 31.8482 5.89849 32.9909 7.37278C34.1335 8.84706 35.9347 9.99564 37.5585 9.31849C36.4559 13.6042 32.8362 16.8814 28.9244 17.1471C27.3637 17.2528 25.7743 16.9299 24.2537 17.3871C23.8769 17.5403 23.4792 17.6366 23.0739 17.6728C22.2147 17.6728 21.5045 16.8756 20.9604 16.1014C19.689 14.2785 18.6695 12.2099 17.2376 10.5499C16.7651 10.0014 16.2067 9.47849 15.5395 9.37849C14.8722 9.27849 14.2565 9.59563 13.6609 9.9042C12.6786 10.4128 11.6735 10.9385 10.9117 11.8071C10.15 12.6756 9.66886 13.9756 9.98386 15.1528C10.1528 15.7871 10.5423 16.3585 10.5566 17.0242C10.5566 18.0814 9.63449 18.8556 9.44835 19.8814C9.40734 20.3144 9.39204 20.7494 9.40253 21.1842C9.31948 22.5956 8.39738 23.7556 7.42944 24.6385C7.0543 24.9842 6.6362 25.3528 6.52737 25.8871C6.45292 26.2499 6.52738 26.6356 6.47869 27.0042C6.33837 27.9214 5.42198 28.3842 4.61156 28.5042C3.66504 28.6426 2.69866 28.5283 1.81085 28.1728C2.95634 27.6385 3.64076 26.1156 3.3773 24.7442C3.01647 22.8556 1.11498 21.5014 1.27534 19.5756C1.36502 18.9859 1.54263 18.4129 1.80226 17.8756C2.21724 16.8367 2.51871 15.7562 2.70147 14.6528C2.88882 13.8035 2.87017 12.9219 2.64706 12.0813C2.40364 11.3413 1.90822 10.7528 1.48439 10.1271C0.91042 9.2764 0.45746 8.35044 0.138453 7.37563C0.0228553 7.08753 -0.0213507 6.77585 0.00958707 6.46706C0.101933 6.1028 0.301399 5.77444 0.582328 5.52421C1.62472 4.43563 2.74156 3.30135 4.12759 2.98706C4.78984 2.877 5.4634 2.85108 6.13218 2.90992C7.29979 2.94699 8.46855 2.89732 9.62877 2.76134C10.5852 2.64991 12.2061 2.6642 13.0137 2.04135C13.7668 1.46992 14.1935 0.741341 15.1242 0.375627C16.0741 0.0286802 17.0948 -0.0802192 18.0967 0.0584879Z" transform="translate(30.7266 44.1528)" fill="black"/>
<path opacity="0.1" d="M3.14616e-06 2.79018e-06C3.14616e-06 2.79018e-06 3.84882 7.56286 2.68329 9.89143L3.14616e-06 2.79018e-06Z" transform="translate(52.5195 112.714)" fill="black"/>
<path opacity="0.1" d="M5.68244 8.70845L0.0466771 1.56559V1.69131C0.0466771 1.69131 -0.279789 -0.617262 0.7941 0.159881C3.1452 1.85702 6.90811 4.63988 6.98829 5.11988C7.06848 5.59988 6.22655 7.52559 5.68244 8.70845Z" transform="translate(53.8164 124.234)" fill="black"/>
<g opacity="0.1">
<path opacity="0.1" d="M1.06243 0.0942858C1.06243 0.0942858 1.53781 2.06 2.44701e-06 3.04286C2.36829 2.63715 2.47138 0.800004 2.39979 3.8365e-06C1.95774 0.0714001 1.51015 0.102952 1.06243 0.0942858Z" transform="translate(50.4609 65.5457)" fill="black"/>
<path opacity="0.1" d="M1.2858 25.9914C1.2858 25.9914 22.7464 14.1229 25.8965 8.07144C28.1559 3.72858 33.5998 1.12572 36.4922 3.13895e-06C34.3816 0.705718 27.2796 3.41143 24.6107 8.53714C21.4606 14.5886 -1.57308e-06 26.4572 -1.57308e-06 26.4572L1.2858 25.9914Z" transform="translate(5.92188 67.3486)" fill="black"/>
<path opacity="0.1" d="M5.33794 13.3914C8.98916 12.2486 12.48 9.42857 12.48 9.42857L1.28294 1.51429L1.53781 0.42857L0.466786 -1.74386e-06L6.99146e-07 1.97715L11.1971 9.89143C9.40027 11.3006 7.4315 12.4767 5.33794 13.3914Z" transform="translate(50.3594 51.3257)" fill="black"/>
<path opacity="0.1" d="M-3.84531e-06 1.33143C1.43071 0.844139 2.89896 0.474337 4.39006 0.225717L4.41011 3.48772e-07C2.90775 0.329255 1.43327 0.774404 -3.84531e-06 1.33143Z" transform="translate(55.7695 90.2029)" fill="black"/>
<path opacity="0.1" d="M9.46454 21.3802H9.36144C9.32242 21.4019 9.27745 21.4106 9.23312 21.405C9.1888 21.3993 9.14746 21.3796 9.11517 21.3488C9.1953 21.3711 9.27826 21.3817 9.36144 21.3802C9.74518 21.1574 10.3208 19.4202 9.11517 9.36309C7.8265 -1.37406 2.7692 -0.531197 -1.74787e-07 0.70309C2.82934 -0.0740536 6.72397 0.597375 7.83223 9.82881C9.03785 19.886 8.46225 21.626 8.07851 21.846C8.5759 21.8275 9.0573 21.6658 9.46454 21.3802Z" transform="translate(32.7344 82.3455)" fill="black"/>
<path opacity="0.1" d="M0.247186 0.0315956C0.163695 0.0330802 0.0804263 0.0224329 -2.80687e-06 -3.8568e-06C0.0324103 0.03097 0.0739004 0.0507508 0.118386 0.0564369C0.162871 0.0621229 0.208015 0.0534196 0.247186 0.0315956Z" transform="translate(40.5664 104.163)" fill="black"/>
</g>
<path d="M18.0967 0.0584854C19.941 0.267057 21.6964 1.05849 23.512 1.48706C23.9657 1.62901 24.449 1.64774 24.9124 1.54134C25.6168 1.3242 26.1896 0.587064 26.9169 0.609921C27.3665 0.609921 27.7761 0.929919 28.1369 1.22421C28.7346 1.67667 29.2966 2.17433 29.8179 2.71277C31.0693 4.06992 31.8482 5.89849 32.9909 7.37278C34.1335 8.84706 35.9347 9.99563 37.5585 9.31849C36.4559 13.6042 32.8362 16.8813 28.9244 17.1471C27.3637 17.2528 25.7743 16.9299 24.2537 17.3871C23.8769 17.5403 23.4792 17.6366 23.0739 17.6728C22.2147 17.6728 21.5045 16.8756 20.9604 16.1013C19.689 14.2785 18.6695 12.2099 17.2376 10.5499C16.7651 10.0013 16.2067 9.47849 15.5395 9.37849C14.8722 9.27849 14.2565 9.59564 13.6609 9.90421C12.6786 10.4128 11.6735 10.9385 10.9117 11.8071C10.15 12.6756 9.66886 13.9756 9.98386 15.1528C10.1528 15.7871 10.5423 16.3585 10.5566 17.0242C10.5566 18.0814 9.63449 18.8556 9.44835 19.8814C9.40734 20.3144 9.39204 20.7494 9.40253 21.1842C9.31948 22.5956 8.39738 23.7556 7.42944 24.6385C7.0543 24.9842 6.6362 25.3528 6.52737 25.8871C6.45292 26.2499 6.52738 26.6356 6.47869 27.0042C6.33837 27.9214 5.42198 28.3842 4.61156 28.5042C3.66504 28.6426 2.69866 28.5283 1.81085 28.1728C2.95634 27.6385 3.64076 26.1156 3.3773 24.7442C3.01647 22.8556 1.11498 21.5014 1.27534 19.5756C1.36502 18.9859 1.54263 18.4129 1.80226 17.8756C2.21724 16.8367 2.51871 15.7562 2.70147 14.6528C2.88882 13.8035 2.87017 12.9219 2.64706 12.0814C2.40364 11.3414 1.90822 10.7528 1.48439 10.1271C0.91042 9.27641 0.45746 8.35045 0.138453 7.37564C0.0228553 7.08753 -0.0213507 6.77586 0.00958707 6.46707C0.101933 6.1028 0.301399 5.77443 0.582328 5.5242C1.62472 4.43563 2.74156 3.30134 4.12759 2.98706C4.78984 2.87699 5.4634 2.85108 6.13218 2.90992C7.29979 2.94698 8.46855 2.89733 9.62877 2.76135C10.5852 2.64992 12.2061 2.6642 13.0137 2.04134C13.7668 1.46992 14.1935 0.741347 15.1242 0.375633C16.0741 0.0286864 17.0948 -0.0802216 18.0967 0.0584854Z" transform="translate(30.7266 43.9272)" fill="#A66477"/>
<path d="M60.6948 7.45425C60.6948 7.41711 60.6948 7.38282 60.6948 7.34854C60.6948 7.31425 60.6948 7.27425 60.6776 7.23996H60.6318C60.6318 7.16282 60.6318 7.08568 60.6318 7.00282C60.5172 4.35425 56.846 -1.28289 55.374 0.362821C54.0854 1.80854 56.0298 5.46568 57.0207 7.11139L57.1094 7.25997L57.0607 7.22854C57.0607 7.22854 52.9628 19.4228 52.4788 19.8971C51.9948 20.3714 48.6214 29.96 44.1741 31.04C43.2949 31.2486 42.5647 31.4371 41.9519 31.6114L42.0005 31.4486C42.2869 30.5143 42.6391 29.6314 42.7823 28.5914C42.9255 27.5514 42.7823 26.2914 42.2554 25.7857C41.9977 25.5343 41.6827 25.5 41.4707 25.1C41.3332 24.7492 41.2595 24.3766 41.2531 24L40.8751 19.3771L41.1386 19.2971C42.7308 18.7885 44.2743 17.5828 44.4547 15.96C44.3994 15.981 44.343 15.9991 44.2858 16.0143C44.3068 15.9199 44.323 15.8245 44.3344 15.7285C42.9971 16.2543 41.7571 14.8714 40.4684 14.2514C38.3464 13.2143 35.9209 14.1914 33.7302 14.4285C31.2473 14.7 28.8905 13.6714 26.3533 13.8571C24.9729 13.9628 23.438 14.8971 23.5125 16.2543C23.5554 17 24.0852 17.6314 24.3028 18.3457C24.8527 20.0743 23.6299 21.8085 22.5588 23.2828C21.8544 24.2514 21.1785 25.4314 21.0583 26.5685C18.5926 23.9971 15.9265 21.0257 15.6172 19.9085L8.48375 7.71425C8.48375 7.71425 8.31478 7.89425 8.04273 8.15997C7.99977 8.02854 7.94823 7.87425 7.89096 7.71997C6.9803 5.17425 4.40296 -0.994325 1.13547 0.137104C-2.13201 1.26853 2.49001 7.59139 4.50033 10.1114L4.7867 10.46C4.6181 10.5013 4.44116 10.4934 4.27697 10.4371L12.2323 24.0514C12.2323 24.0514 13.6785 26.6571 15.0044 27.3657C15.0044 27.3657 24.887 39.7971 25.0073 42.2828C25.1276 44.7686 29.4518 51.4 29.4518 51.4C29.4518 51.4 30.898 62.1743 28.3664 64.0686H28.3979H28.418H28.4495H28.4781H28.5354H28.5726H28.6098H28.6585H28.6986H28.7559H28.7845C28.6643 64.1857 28.5411 64.3143 28.4151 64.4543C26.5394 66.5286 24.1425 70.9743 27.4186 78.5343C32.2382 89.6771 32.9627 94.0429 32.9627 94.0429C32.9627 94.0429 23.7988 94.5172 21.9947 94.8714C20.3968 95.1857 14.1854 95.4057 12.765 95.4429C12.2581 94.8543 10.7604 93.5514 8.73861 95.4429C6.20709 97.8114 4.4001 105.729 4.4001 105.729C4.4001 105.729 3.43504 112.123 6.69107 110.463C6.69107 110.463 10.5485 105.134 11.631 104.897C12.1693 104.78 12.7392 103.989 13.1745 103.226L13.1974 103.24C13.2232 103.24 13.3291 103.183 13.5009 103.114C14.3028 102.797 16.5107 102.034 18.2518 102.414C19.2055 102.623 23.2948 102.671 27.5818 102.66C26.6138 104.974 24.8785 110.946 24.8785 110.946C24.8785 110.946 24.1539 116.514 26.5594 116.286C28.2777 116.117 30.9123 111.737 32.2869 109.237C33.2834 108.509 36.1385 105.897 38.2491 106.094L52.4702 100.649C52.4702 100.649 55.8437 98.7543 54.0367 92.48C52.6048 87.4914 48.5298 77.28 46.9204 73.3L46.8717 73.1971C46.4822 72.2343 46.2474 71.6629 46.2474 71.6629C45.5862 69.8459 45.1524 67.9544 44.9559 66.0314C44.9416 65.88 44.9301 65.7257 44.9186 65.5743C45.1178 65.4909 45.3055 65.3824 45.4771 65.2514C45.4771 65.2514 44.1512 51.8743 45.4771 50.4514L45.5 50.4257V50.4086L45.5229 50.38L45.5744 50.3143L45.6374 50.2343C45.709 50.14 45.7949 50.0228 45.8923 49.88C46.6512 48.7714 48.0659 46.24 47.6592 43.2514C47.642 43.1219 47.621 42.9914 47.5962 42.86C47.4404 42.0495 47.1623 41.2673 46.7715 40.54C46.7142 40.2372 46.6788 39.9307 46.6655 39.6228C46.6655 39.4485 46.6655 39.2571 46.6655 39.0514V39.0171C46.6655 38.9619 46.6655 38.9067 46.6655 38.8514V38.8114C46.6655 38.6771 46.6884 38.5257 46.7085 38.4V38.3486C46.7085 38.2971 46.717 38.2447 46.7342 38.1914V38.1257C46.7342 38.0743 46.7571 38.0228 46.7686 37.9714V37.9171C46.7858 37.8485 46.803 37.78 46.8259 37.7114V37.6771C46.843 37.62 46.8621 37.5638 46.8831 37.5085L46.9089 37.4428L46.9662 37.3057L46.9948 37.2371C47.0177 37.1857 47.0435 37.1343 47.0693 37.0828L47.0893 37.04C47.1237 36.9771 47.16 36.9152 47.1981 36.8543L47.2297 36.8057L47.3241 36.6714L47.37 36.6114L47.4702 36.4914L47.516 36.44C47.5676 36.3857 47.6191 36.3314 47.6764 36.28C49.2428 34.8514 56.2331 24.3228 56.2331 24.3228C56.2331 24.3228 57.9198 21.9543 57.9198 20.4171C58.0144 20.3828 60.9955 10.4685 60.6948 7.45425ZM41.9289 95.9543C41.7571 94.3314 41.5853 92.32 41.4278 90.24L44.154 94.48C44.154 94.48 43.8963 95.7714 41.9289 95.9543Z" transform="translate(178 21.6399)" fill="url(#paint3_linear)"/>
<path d="M8.41112 1.21465C8.41112 1.21465 6.77881 -1.35678 4.32748 0.983219C1.87615 3.32322 0.129296 11.1061 0.129296 11.1061C0.129296 11.1061 -0.804274 17.3918 2.3458 15.7604C2.3458 15.7604 6.06862 10.5232 7.12819 10.2918C8.18776 10.0604 9.34469 7.14892 9.34469 7.14892L8.41112 1.21465Z" transform="translate(183.094 115.482)" fill="#493545"/>
<path d="M6.04608 0.542988C6.04608 0.542988 3.82956 -0.505583 3.13081 0.31156C2.43207 1.1287 0.0981616 9.27156 0.0981616 9.27156C0.0981616 9.27156 -0.600579 14.6258 1.73048 14.3916C4.06153 14.1573 8.14516 5.77442 8.14516 5.77442L6.04608 0.542988Z" transform="translate(202.953 122.437)" fill="#493545"/>
<path opacity="0.05" d="M6.04608 0.542988C6.04608 0.542988 3.82956 -0.505583 3.13081 0.31156C2.43207 1.1287 0.0981616 9.27156 0.0981616 9.27156C0.0981616 9.27156 -0.600579 14.6258 1.73048 14.3916C4.06153 14.1573 8.14516 5.77442 8.14516 5.77442L6.04608 0.542988Z" transform="translate(202.953 122.437)" fill="black"/>
<path d="M8.88223 14.1771L13.8966 21.9743C13.8966 21.9743 13.5472 23.72 10.5145 23.3714L0.133599 29.8886C0.133599 29.8886 -0.768455 37.8229 2.11529 37.1029C2.58208 36.9857 5.83811 33.6115 8.18062 33.8457L21.9464 28.4914C21.9464 28.4914 25.2111 26.6286 23.4613 20.4629C21.7116 14.2971 15.9269 -2.09263e-06 15.9269 -2.09263e-06L6.78313 5.10286L8.88223 14.1771Z" transform="translate(207.812 92.9771)" fill="#3E3D77"/>
<path opacity="0.05" d="M8.88223 14.1771L13.8966 21.9743C13.8966 21.9743 13.5472 23.72 10.5145 23.3714L0.133599 29.8886C0.133599 29.8886 -0.768455 37.8229 2.11529 37.1029C2.58208 36.9857 5.83811 33.6115 8.18062 33.8457L21.9464 28.4914C21.9464 28.4914 25.2111 26.6286 23.4613 20.4629C21.7116 14.2971 15.9269 -2.09263e-06 15.9269 -2.09263e-06L6.78313 5.10286L8.88223 14.1771Z" transform="translate(207.812 92.9771)" fill="black"/>
<path d="M29.9212 34.0914C30.6199 38.5143 26.6565 38.8629 26.6565 38.8629C26.6565 38.8629 8.80992 39.2114 6.71083 38.7457C4.61173 38.28 1.81104 39.56 1.81104 39.56C-1.80582 37.3486 1.11229 31.88 1.11229 31.88C1.11229 31.88 8.57797 31.6486 10.3277 31.3086C12.0774 30.9686 20.9406 30.4857 20.9406 30.4857C20.9406 30.4857 20.2418 26.18 15.574 15.2429C12.4039 7.81429 14.7149 3.44286 16.5391 1.40572C17.0046 0.865154 17.5434 0.392019 18.1399 -3.48772e-06L32.487 0.69714C32.4716 1.41904 32.4984 2.14122 32.5672 2.86C32.8125 5.32771 33.4556 7.7397 34.4716 10.0029C33.6554 10.0029 28.4063 14.8914 28.4063 14.8914C28.4063 14.8914 29.2196 29.6714 29.9212 34.0914Z" transform="translate(189.926 84.5828)" fill="#3E3D77"/>
<path opacity="0.1" d="M2.15916 32.3372C2.15916 32.3372 9.62484 32.1057 11.3746 31.7657C13.1243 31.4257 21.9874 30.9514 21.9874 30.9514C21.9874 30.9514 21.2887 26.6457 16.6209 15.7086C13.4507 8.28 15.7618 3.90857 17.5859 1.87143C18.0514 1.33087 18.5902 0.857735 19.1867 0.465712L32.48 1.11143C32.48 0.974287 32.48 0.825712 32.48 0.69714L18.1329 -3.8365e-06C17.5364 0.392019 16.9976 0.865154 16.5321 1.40571C14.7165 3.44572 12.3969 7.81429 15.567 15.2429C20.2463 26.1714 20.9393 30.4772 20.9393 30.4772C20.9393 30.4772 12.0618 30.9429 10.3264 31.2914C8.59103 31.64 1.11104 31.8629 1.11104 31.8629C1.11104 31.8629 -1.80421 37.3343 1.80978 39.5543C1.80978 39.5543 1.9186 39.5029 2.09615 39.4286C-0.306494 36.9629 2.15916 32.3372 2.15916 32.3372Z" transform="translate(189.926 84.5913)" fill="black"/>
<path d="M7.23086 2.09263e-06H5.59317e-06V18.2686H7.23086V2.09263e-06Z" transform="translate(206.199 41.8713)" fill="#493545"/>
<path opacity="0.1" d="M7.23086 2.09263e-06H5.59317e-06V18.2686H7.23086V2.09263e-06Z" transform="translate(206.199 41.8713)" fill="black"/>
<path d="M3.28298 3.08857C3.53213 3.15714 3.81277 3.16571 3.98173 3.50857C4.08664 3.78258 4.14379 4.07248 4.1507 4.36571L4.60601 10.0114C4.61244 10.3811 4.68417 10.7467 4.81793 11.0914C5.00979 11.4743 5.32767 11.52 5.57681 11.7657C6.07796 12.2629 6.224 13.5086 6.08654 14.5229C5.94909 15.5372 5.60259 16.4057 5.33054 17.3229C4.94108 18.6372 4.68333 20.1143 4.13636 21.2229C3.5894 22.3314 2.59569 22.9372 1.95422 22.0057C1.31275 21.0743 1.39867 19.1943 1.27839 17.6543C1.07793 15.0829 0.0727693 12.8657 0.00404043 10.2771C-0.0532336 8.18286 0.510916 6.22857 0.863152 4.24286C1.11516 2.88 1.12948 1.22571 1.49604 -1.39509e-06C1.80245 1.45714 2.38665 2.84286 3.28298 3.08857Z" transform="translate(214.281 36.1028)" fill="#493545"/>
<path opacity="0.1" d="M3.28298 3.08857C3.53213 3.15714 3.81277 3.16571 3.98173 3.50857C4.08664 3.78258 4.14379 4.07248 4.1507 4.36571L4.60601 10.0114C4.61244 10.3811 4.68417 10.7467 4.81793 11.0914C5.00979 11.4743 5.32767 11.52 5.57681 11.7657C6.07796 12.2629 6.224 13.5086 6.08654 14.5229C5.94909 15.5372 5.60259 16.4057 5.33054 17.3229C4.94108 18.6372 4.68333 20.1143 4.13636 21.2229C3.5894 22.3314 2.59569 22.9372 1.95422 22.0057C1.31275 21.0743 1.39867 19.1943 1.27839 17.6543C1.07793 15.0829 0.0727693 12.8657 0.00404043 10.2771C-0.0532336 8.18286 0.510916 6.22857 0.863152 4.24286C1.11516 2.88 1.12948 1.22571 1.49604 -1.39509e-06C1.80245 1.45714 2.38665 2.84286 3.28298 3.08857Z" transform="translate(214.281 36.1028)" fill="black"/>
<path d="M7.97879 8.6261L5.18096 10.9547C5.18096 10.9547 4.84877 10.5661 4.35335 9.93753C2.40889 7.46039 -2.06135 1.2461 1.09732 0.13467C4.25598 -0.976759 6.75312 5.08324 7.63514 7.5861C7.85851 8.22039 7.97879 8.6261 7.97879 8.6261Z" transform="translate(178.977 22.5396)" fill="#C77485"/>
<path d="M5.30963 7.7417C4.1441 9.48742 2.51178 7.7417 2.51178 7.7417C2.51178 7.7417 2.30273 7.43027 2.00777 6.92741C1.04843 5.30741 -0.833029 1.71598 0.412682 0.293125C1.84453 -1.33259 5.39267 4.21598 5.50149 6.81884C5.53519 7.13888 5.46814 7.46144 5.30963 7.7417Z" transform="translate(232.148 22.6096)" fill="#C77485"/>
<path d="M4.89403e-06 1.97143C4.89403e-06 1.97143 2.33393 9.42 1.63232 11.6286C0.930712 13.8371 6.64952 16.4086 6.64952 16.4086H13.1816C13.1816 16.4086 15.5155 11.6371 14.9313 10.24C14.3471 8.84286 9.3328 7.79714 9.3328 7.79714C9.3328 7.79714 6.41757 7.79715 6.53498 2.09263e-06L4.89403e-06 1.97143Z" transform="translate(208.766 47.2314)" fill="#C77485"/>
<path opacity="0.1" d="M3.62544 1.04L0.827617 3.36857C0.827617 3.36857 0.495424 2.98 2.79659e-06 2.35143C1.01662 2.17143 2.59451 0.691428 3.28466 -8.71931e-07C3.50517 0.634285 3.62544 1.04 3.62544 1.04Z" transform="translate(183.328 30.1257)" fill="black"/>
<path opacity="0.1" d="M3.30186 0.931431C2.13633 2.67715 0.504015 0.931431 0.504015 0.931431C0.504015 0.931431 0.294961 0.62 0 0.117143L0.0372295 -1.2207e-06C0.793247 0.539999 3.14435 0.0799988 3.49372 -1.2207e-06C3.52926 0.322868 3.46214 0.648713 3.30186 0.931431Z" transform="translate(234.156 29.4199)" fill="black"/>
<path opacity="0.1" d="M16.0367 2.86286C12.4285 4.50571 0.704471 1.58 0 1.40572C0.465489 0.865157 1.00429 0.392022 1.60082 -3.48772e-07L15.948 0.697144C15.9353 1.42016 15.9649 2.14329 16.0367 2.86286Z" transform="translate(206.449 84.5771)" fill="black"/>
<path d="M27.1708 25.94C27.1708 25.94 24.373 26.8714 20.4068 23.2629C20.4068 23.2629 11.5293 14.5343 10.9565 12.44L4.08364 0.439999C4.08364 0.439999 1.16839 3.58286 0 3.11715L7.69764 16.5C7.69764 16.5 9.09799 19.0714 10.3809 19.7572C10.3809 19.7572 19.9457 31.9772 20.0602 34.42C20.1748 36.8629 24.3701 43.4057 24.3701 43.4057C24.3701 43.4057 25.7705 53.9943 23.3191 55.8572C23.3191 55.8572 36.9647 59.3486 39.8799 57.02C39.8799 57.02 38.597 43.8772 39.8799 42.4743C39.8799 42.4743 43.8462 37.82 41.1629 32.7C41.1629 32.7 40.5901 29.9086 42.0964 28.5114C43.6028 27.1143 50.3783 16.7572 50.3783 16.7572C50.3783 16.7572 52.0106 14.4286 52.0106 12.9172C52.0106 12.9172 55.0433 2.67714 54.5879 5.23159e-07C54.5879 5.23159e-07 51.9046 0.571429 51.0885 5.23159e-07C51.0885 5.23159e-07 47.1222 12 46.6555 12.4514C46.1887 12.9029 42.9327 22.3429 38.6085 23.3914C34.2843 24.44 33.5941 24.9029 33.5941 24.9029C33.5941 24.9029 41.9905 30.14 37.9097 32.4657C33.8289 34.7914 27.1708 25.94 27.1708 25.94Z" transform="translate(183.113 29.6628)" fill="#FFAAC4"/>
<path opacity="0.1" d="M6.70107 3.30571C6.56252 2.20953 6.50603 1.10457 6.5321 3.8365e-06L-2.79659e-06 1.97714C0.171876 2.4113 0.30881 2.85843 0.409505 3.31428C1.15693 3.64286 2.16497 4.42001 3.03267 4.42001C4.34523 4.46282 5.6351 4.07101 6.70107 3.30571Z" transform="translate(208.883 47.6885)" fill="black"/>
<path d="M6.06533 12.1029C9.41511 12.1029 12.1306 9.39354 12.1306 6.05143C12.1306 2.70932 9.41511 0 6.06533 0C2.71554 0 4.19488e-06 2.70932 4.19488e-06 6.05143C4.19488e-06 9.39354 2.71554 12.1029 6.06533 12.1029Z" transform="translate(205.73 39.6599)" fill="#C77485"/>
<path opacity="0.1" d="M5.13665 0.0817979C3.80217 0.184655 2.31305 1.10466 2.38751 2.43894C2.4276 3.17323 2.93161 3.79323 3.15211 4.49609C3.6819 6.19609 2.50206 7.9018 1.4654 9.35323C0.428741 10.8047 -0.539198 12.7275 0.348551 14.2647C0.601592 14.6347 0.875014 14.9905 1.16757 15.3304C2.26436 16.8075 2.25006 18.8018 2.73689 20.5761C3.35861 22.846 4.82823 24.7921 6.84367 26.0143C8.85912 27.2365 11.2673 27.6421 13.5731 27.1475C12.7051 26.042 12.2722 24.658 12.3561 23.2561C12.4219 22.239 12.7512 21.1761 12.3561 20.2361C11.8463 19.0275 10.3515 18.5504 9.58113 17.4932C8.81079 16.4361 8.86235 14.9704 9.23463 13.7104C9.60691 12.4504 10.2512 11.2818 10.5605 9.99609C10.6368 9.62097 10.7324 9.25 10.8469 8.88466C11.3853 7.35894 12.9947 6.47323 14.5697 6.09323C16.1447 5.71323 17.8 5.69037 19.3378 5.19037C20.8756 4.69037 22.3704 3.51894 22.548 1.91037C21.2536 2.42752 20.0537 1.07894 18.8051 0.458943C16.749 -0.5582 14.4036 0.398943 12.2845 0.633229C9.87036 0.9018 7.57939 -0.0953451 5.13665 0.0817979Z" transform="translate(199.445 36.3066)" fill="black"/>
<path d="M5.13666 0.0817986C3.80218 0.184656 2.31306 1.10466 2.38751 2.43894C2.42761 3.17323 2.93161 3.79323 3.15212 4.49609C3.6819 6.19609 2.50205 7.9018 1.46539 9.35323C0.428732 10.8047 -0.53919 12.7275 0.348558 14.2647C0.6016 14.6347 0.875022 14.9905 1.16757 15.3304C2.26437 16.8075 2.25005 18.8018 2.73688 20.5761C3.3586 22.846 4.82822 24.7921 6.84366 26.0143C8.85911 27.2365 11.2673 27.6421 13.5731 27.1475C12.7051 26.042 12.2722 24.658 12.3561 23.2561C12.4219 22.239 12.7513 21.1761 12.3561 20.2361C11.8463 19.0275 10.3515 18.5504 9.58114 17.4932C8.8108 16.4361 8.86234 14.9704 9.23462 13.7104C9.6069 12.4504 10.2512 11.2818 10.5605 9.99609C10.6369 9.62097 10.7324 9.25 10.8469 8.88466C11.3853 7.35894 12.9947 6.47323 14.5697 6.09323C16.1447 5.71323 17.8 5.69037 19.3378 5.19037C20.8756 4.69037 22.3704 3.51895 22.548 1.91037C21.2536 2.42752 20.0537 1.07894 18.8051 0.458944C16.749 -0.5582 14.4036 0.398944 12.2845 0.63323C9.8761 0.898944 7.59372 -0.10963 5.13666 0.0817986Z" transform="translate(199.324 36.0752)" fill="#493545"/>
<path opacity="0.1" d="M6.99146e-06 -3.48773e-06C6.99146e-06 -3.48773e-06 2.42842 2.16286 2.90666 3.11714L6.99146e-06 -3.48773e-06Z" transform="translate(217.805 59.1543)" fill="black"/>
<path opacity="0.1" d="M9.2154 2.79018e-06C9.2154 2.79018e-06 6.18274 3.1335e-06 4.78239 0.348575C3.38204 0.697146 2.09744e-06 0.348575 2.09744e-06 0.348575" transform="translate(213.844 72.0713)" fill="black"/>
<g opacity="0.1">
<path opacity="0.1" d="M4.31559 7.56286C4.05416 7.71213 3.77111 7.82008 3.47653 7.88286C4.23718 8.0511 5.03321 7.93736 5.71595 7.56286C9.79959 5.23429 1.40035 -2.44141e-06 1.40035 -2.44141e-06H8.38976e-06C8.38976e-06 -2.44141e-06 8.39924 5.23714 4.31559 7.56286Z" transform="translate(216.695 54.5571)" fill="black"/>
<path opacity="0.1" d="M1.48054 0.211427C1.48054 0.137141 1.46336 0.0657152 1.45191 8.71931e-07C0.97223 0.0991797 0.487566 0.17262 5.59317e-06 0.220002C0.492203 0.274014 0.989 0.271134 1.48054 0.211427Z" transform="translate(236.234 29.6543)" fill="black"/>
<path opacity="0.1" d="M24.7252 52.7143C27.1737 50.8514 25.7762 40.2629 25.7762 40.2629C25.7762 40.2629 21.578 33.7457 21.4606 31.3029C21.3432 28.86 11.7813 16.64 11.7813 16.64C10.4983 15.9429 9.09799 13.3829 9.09799 13.3829C9.09799 13.3829 1.16552 0.465715 -2.79659e-06 8.71931e-07L7.69763 13.3829C7.69763 13.3829 9.09798 15.9543 10.3809 16.64C10.3809 16.64 19.9457 28.86 20.0602 31.3029C20.1748 33.7457 24.373 40.2714 24.373 40.2714C24.373 40.2714 25.7733 50.86 23.322 52.7229C23.322 52.7229 31.7098 54.8686 36.7385 54.6743C31.6983 54.4972 24.7252 52.7143 24.7252 52.7143Z" transform="translate(183.105 32.7971)" fill="black"/>
<path opacity="0.1" d="M0.312142 0.0885722L0.243416 1.39509e-06C0.163599 0.0235564 0.0822816 0.0416938 8.38976e-06 0.0542878C0.108829 0.0685735 0.211913 0.0800007 0.312142 0.0885722Z" transform="translate(210.035 55.6057)" fill="black"/>
</g>
<g opacity="0.1">
<path opacity="0.1" d="M13.6387 0L13.5671 0.0142866C13.4439 3.58857 10.9582 11.9857 10.9582 11.9857C10.9582 13.4972 9.32594 15.8257 9.32594 15.8257C9.32594 15.8257 2.56185 26.1829 1.04409 27.58C-0.473672 28.9772 0.110521 31.7686 0.110521 31.7686L0.124854 31.7972C0.0790344 30.8572 0.193578 29.4 1.15865 28.5086C2.67355 27.1114 9.44047 16.7543 9.44047 16.7543C9.44047 16.7543 11.0728 14.4257 11.0728 12.9143C11.0728 12.9314 14.1055 2.69143 13.6387 0Z" transform="translate(224.051 29.6399)" fill="black"/>
<path opacity="0.1" d="M-1.39829e-06 6.56286C0.174685 7.55144 0.0572825 6.50571 0.11742 7.49429C0.11742 7.49429 2.98111 4.14286 2.19932 3.13895e-06C2.43414 3.70286 -1.39829e-06 6.56286 -1.39829e-06 6.56286Z" transform="translate(222.879 64.6343)" fill="black"/>
</g>
<path opacity="0.1" d="M122.472 23.4743C190.111 23.4743 244.944 18.2194 244.944 11.7371C244.944 5.2549 190.111 -4.18527e-06 122.472 -4.18527e-06C54.8326 -4.18527e-06 0 5.2549 0 11.7371C0 18.2194 54.8326 23.4743 122.472 23.4743Z" transform="translate(12.0664 165.526)" fill="#2C7BE5"/>
<path d="M1.64153 45.0972C1.64153 45.0972 -2.52802 30.9686 2.42332 20.5714C4.52914 16.2231 5.16422 11.3105 4.23318 6.57142C3.77331 4.32497 3.10806 2.1253 2.24577 -7.67299e-06" transform="translate(85.4219 120.257)" stroke="#535461" stroke-width="2" stroke-miterlimit="10"/>
<path d="M6.30874 3.37481C6.30874 5.10624 3.15867 10.1262 3.15867 10.1262C3.15867 10.1262 0.00859138 5.10624 0.00859138 3.37481C-0.0233854 2.94372 0.0341142 2.51068 0.177496 2.10277C0.320879 1.69486 0.547063 1.32084 0.841904 1.0041C1.13674 0.687363 1.4939 0.43471 1.89105 0.261941C2.2882 0.0891714 2.71681 3.94351e-06 3.15007 3.94351e-06C3.58334 3.94351e-06 4.01195 0.0891714 4.4091 0.261941C4.80625 0.43471 5.1634 0.687363 5.45825 1.0041C5.75309 1.32084 5.97927 1.69486 6.12265 2.10277C6.26604 2.51068 6.32353 2.94372 6.29156 3.37481H6.30874Z" transform="translate(84.4492 110.317)" fill="#2C7BE5"/>
<path d="M6.31446 5.03207C5.3723 6.48636 -6.99146e-07 8.99493 -6.99146e-07 8.99493C-6.99146e-07 8.99493 0.0973667 3.07779 1.03953 1.6235C1.2485 1.24596 1.53313 0.915371 1.87569 0.65231C2.21824 0.38925 2.6114 0.199355 3.03069 0.0944312C3.44999 -0.010493 3.88643 -0.0281951 4.31288 0.0424292C4.73932 0.113054 5.14663 0.270484 5.50946 0.504936C5.87228 0.739389 6.18286 1.04585 6.42186 1.40522C6.66086 1.7646 6.82317 2.1692 6.89869 2.59386C6.9742 3.01851 6.9613 3.45412 6.86079 3.87359C6.76029 4.29306 6.57431 4.6874 6.31446 5.03207Z" transform="translate(89.6289 118.248)" fill="#2C7BE5"/>
<path d="M7.44563 6.04836C5.89637 6.82836 2.09744e-06 6.28837 2.09744e-06 6.28837C2.09744e-06 6.28837 3.07849 1.22837 4.62775 0.448366C4.99914 0.225891 5.41253 0.0822334 5.84209 0.0263692C6.27165 -0.029495 6.70813 0.00363766 7.12428 0.123694C7.54042 0.243751 7.92728 0.448152 8.26066 0.724123C8.59405 1.00009 8.8668 1.3417 9.06187 1.72759C9.25694 2.11349 9.37014 2.53538 9.39439 2.9669C9.41864 3.39843 9.35342 3.83031 9.20281 4.23555C9.05221 4.64078 8.81944 5.01067 8.51907 5.3221C8.21869 5.63352 7.85716 5.87978 7.45708 6.0455L7.44563 6.04836Z" transform="translate(88.2695 133.623)" fill="#2C7BE5"/>
<path d="M7.31104 5.49985C5.91642 6.52843 3.84531e-06 6.99413 3.84531e-06 6.99413C3.84531e-06 6.99413 2.17641 1.48842 3.5739 0.456987C4.24642 0.0492695 5.04753 -0.0925316 5.81959 0.0594733C6.59164 0.211478 7.2787 0.646286 7.74556 1.27833C8.21242 1.91037 8.42526 2.69387 8.34219 3.47462C8.25913 4.25537 7.88617 4.97682 7.29672 5.49699L7.31104 5.49985Z" transform="translate(85.4375 146.531)" fill="#2C7BE5"/>
<path d="M1.12213 5.54781C2.36784 6.75353 8.16684 8.00496 8.16684 8.00496C8.16684 8.00496 6.73499 2.25924 5.50074 1.05067C5.21274 0.728572 4.86133 0.469122 4.46841 0.288478C4.07549 0.107835 3.64949 0.00987138 3.21697 0.000705966C2.78444 -0.00845945 2.35465 0.0713672 1.9544 0.235203C1.55415 0.399039 1.19202 0.643371 0.890573 0.952977C0.589128 1.26258 0.354835 1.63083 0.202298 2.03475C0.0497618 2.43866 -0.0177483 2.8696 0.00397676 3.30069C0.0257019 3.73178 0.136197 4.15379 0.328573 4.5404C0.520949 4.92701 0.791079 5.26993 1.12213 5.54781Z" transform="translate(81.9023 122.032)" fill="#2C7BE5"/>
<path d="M1.52857 5.82592C3.07783 6.60592 8.9742 6.06593 8.9742 6.06593C8.9742 6.06593 5.90717 1.00592 4.35791 0.240208C3.62335 -0.064054 2.80061 -0.0798175 2.05488 0.196071C1.30914 0.47196 0.695615 1.01908 0.33746 1.7276C-0.0206945 2.43612 -0.0969569 3.25358 0.123976 4.01588C0.344908 4.77818 0.846684 5.42889 1.52857 5.83736V5.82592Z" transform="translate(78.2109 136.257)" fill="#2C7BE5"/>
<path d="M1.49994 5.83158C2.89456 6.86015 8.81098 7.32588 8.81098 7.32588C8.81098 7.32588 6.63456 1.82016 5.23707 0.788731C4.90952 0.499675 4.52523 0.281817 4.10867 0.149048C3.69212 0.0162786 3.25241 -0.0284938 2.81756 0.0175606C2.38271 0.0636149 1.96222 0.199496 1.58289 0.416556C1.20355 0.633617 0.873667 0.927098 0.614236 1.27832C0.354804 1.62954 0.171504 2.03081 0.0760151 2.45658C-0.0194739 2.88235 -0.0250595 3.32329 0.0596026 3.75133C0.144265 4.17937 0.317326 4.58513 0.567768 4.94279C0.818211 5.30044 1.14054 5.60217 1.51426 5.82874L1.49994 5.83158Z" transform="translate(76.9805 150.783)" fill="#2C7BE5"/>
<path opacity="0.1" d="M6.30874 3.37481C6.30874 5.10624 3.15867 10.1262 3.15867 10.1262C3.15867 10.1262 0.00859138 5.10624 0.00859138 3.37481C-0.0233854 2.94372 0.0341142 2.51068 0.177496 2.10277C0.320879 1.69486 0.547063 1.32084 0.841904 1.0041C1.13674 0.687363 1.4939 0.43471 1.89105 0.261941C2.2882 0.0891714 2.71681 3.94351e-06 3.15007 3.94351e-06C3.58334 3.94351e-06 4.01195 0.0891714 4.4091 0.261941C4.80625 0.43471 5.1634 0.687363 5.45825 1.0041C5.75309 1.32084 5.97927 1.69486 6.12265 2.10277C6.26604 2.51068 6.32353 2.94372 6.29156 3.37481H6.30874Z" transform="translate(84.4492 110.317)" fill="#2C7BE5"/>
<path opacity="0.1" d="M6.31446 5.03207C5.3723 6.48636 -6.99146e-07 8.99493 -6.99146e-07 8.99493C-6.99146e-07 8.99493 0.0973667 3.07779 1.03953 1.6235C1.2485 1.24596 1.53313 0.915371 1.87569 0.65231C2.21824 0.38925 2.6114 0.199355 3.03069 0.0944312C3.44999 -0.010493 3.88643 -0.0281951 4.31288 0.0424292C4.73932 0.113054 5.14663 0.270484 5.50946 0.504936C5.87228 0.739389 6.18286 1.04585 6.42186 1.40522C6.66086 1.7646 6.82317 2.1692 6.89869 2.59386C6.9742 3.01851 6.9613 3.45412 6.86079 3.87359C6.76029 4.29306 6.57431 4.6874 6.31446 5.03207Z" transform="translate(89.6289 118.248)" fill="#2C7BE5"/>
<path opacity="0.1" d="M7.44563 6.04836C5.89637 6.82836 2.09744e-06 6.28837 2.09744e-06 6.28837C2.09744e-06 6.28837 3.07849 1.22837 4.62775 0.448366C4.99914 0.225891 5.41253 0.0822334 5.84209 0.0263692C6.27165 -0.029495 6.70813 0.00363766 7.12428 0.123694C7.54042 0.243751 7.92728 0.448152 8.26066 0.724123C8.59405 1.00009 8.8668 1.3417 9.06187 1.72759C9.25694 2.11349 9.37014 2.53538 9.39439 2.9669C9.41864 3.39843 9.35342 3.83031 9.20281 4.23555C9.05221 4.64078 8.81944 5.01067 8.51907 5.3221C8.21869 5.63352 7.85716 5.87978 7.45708 6.0455L7.44563 6.04836Z" transform="translate(88.2695 133.623)" fill="#2C7BE5"/>
<path opacity="0.1" d="M7.31104 5.49985C5.91642 6.52843 3.84531e-06 6.99413 3.84531e-06 6.99413C3.84531e-06 6.99413 2.17641 1.48842 3.5739 0.456987C4.24642 0.0492695 5.04753 -0.0925316 5.81959 0.0594733C6.59164 0.211478 7.2787 0.646286 7.74556 1.27833C8.21242 1.91037 8.42526 2.69387 8.34219 3.47462C8.25913 4.25537 7.88617 4.97682 7.29672 5.49699L7.31104 5.49985Z" transform="translate(85.4375 146.531)" fill="#2C7BE5"/>
<path opacity="0.1" d="M1.12213 5.54781C2.36784 6.75353 8.16684 8.00496 8.16684 8.00496C8.16684 8.00496 6.73499 2.25924 5.50074 1.05067C5.21274 0.728572 4.86133 0.469122 4.46841 0.288478C4.07549 0.107835 3.64949 0.00987138 3.21697 0.000705966C2.78444 -0.00845945 2.35465 0.0713672 1.9544 0.235203C1.55415 0.399039 1.19202 0.643371 0.890573 0.952977C0.589128 1.26258 0.354835 1.63083 0.202298 2.03475C0.0497618 2.43866 -0.0177483 2.8696 0.00397676 3.30069C0.0257019 3.73178 0.136197 4.15379 0.328573 4.5404C0.520949 4.92701 0.791079 5.26993 1.12213 5.54781Z" transform="translate(81.9023 122.032)" fill="#2C7BE5"/>
<path opacity="0.1" d="M1.52857 5.82592C3.07783 6.60592 8.9742 6.06593 8.9742 6.06593C8.9742 6.06593 5.90717 1.00592 4.35791 0.240208C3.62335 -0.064054 2.80061 -0.0798175 2.05488 0.196071C1.30914 0.47196 0.695615 1.01908 0.33746 1.7276C-0.0206945 2.43612 -0.0969569 3.25358 0.123976 4.01588C0.344908 4.77818 0.846684 5.42889 1.52857 5.83736V5.82592Z" transform="translate(78.2109 136.257)" fill="#2C7BE5"/>
<path opacity="0.1" d="M1.49994 5.83158C2.89456 6.86015 8.81098 7.32588 8.81098 7.32588C8.81098 7.32588 6.63456 1.82016 5.23707 0.788731C4.90952 0.499675 4.52523 0.281817 4.10867 0.149048C3.69212 0.0162786 3.25241 -0.0284938 2.81756 0.0175606C2.38271 0.0636149 1.96222 0.199496 1.58289 0.416556C1.20355 0.633617 0.873667 0.927098 0.614236 1.27832C0.354804 1.62954 0.171504 2.03081 0.0760151 2.45658C-0.0194739 2.88235 -0.0250595 3.32329 0.0596026 3.75133C0.144265 4.17937 0.317326 4.58513 0.567768 4.94279C0.818211 5.30044 1.14054 5.60217 1.51426 5.82874L1.49994 5.83158Z" transform="translate(76.9805 150.783)" fill="#2C7BE5"/>
<path d="M1.64153 45.0972C1.64153 45.0972 -2.52803 30.9686 2.42332 20.5714C4.52914 16.2231 5.16422 11.3105 4.23318 6.57143C3.7733 4.32498 3.10805 2.1253 2.24577 -1.39509e-06" transform="translate(169.801 120.46)" stroke="#535461" stroke-width="2" stroke-miterlimit="10"/>
<path d="M6.30015 2.9109C6.30015 4.64233 3.15007 9.66234 3.15007 9.66234C3.15007 9.66234 -1.39829e-06 4.64233 -1.39829e-06 2.9109C0.0586884 2.11968 0.415144 1.37988 0.99782 0.83997C1.5805 0.300062 2.34628 4.07825e-06 3.14149 4.07825e-06C3.9367 4.07825e-06 4.70247 0.300062 5.28514 0.83997C5.86782 1.37988 6.22428 2.11968 6.28297 2.9109H6.30015Z" transform="translate(168.828 110.98)" fill="#2C7BE5"/>
<path d="M6.31447 5.03208C5.37231 6.48636 6.29232e-06 8.99493 6.29232e-06 8.99493C6.29232e-06 8.99493 0.0973736 3.07779 1.03953 1.62351C1.24851 1.24596 1.53312 0.915374 1.87568 0.652314C2.21823 0.389253 2.61139 0.199341 3.03068 0.0944172C3.44997 -0.010507 3.88644 -0.028209 4.31288 0.0424153C4.73933 0.11304 5.14663 0.270487 5.50946 0.50494C5.87228 0.739393 6.18286 1.04584 6.42186 1.40521C6.66086 1.76458 6.82316 2.1692 6.89868 2.59386C6.97419 3.01852 6.96129 3.45413 6.86078 3.87359C6.76027 4.29306 6.57432 4.68741 6.31447 5.03208Z" transform="translate(174.008 118.448)" fill="#2C7BE5"/>
<path d="M7.44563 6.05414C5.89637 6.83414 0 6.29415 0 6.29415C0 6.29415 3.07847 1.23415 4.62774 0.454147C4.99956 0.229614 5.41394 0.0842672 5.84479 0.0272674C6.27565 -0.0297324 6.71365 0.00284229 7.13128 0.122936C7.5489 0.243029 7.93709 0.448046 8.27144 0.725091C8.60579 1.00214 8.87906 1.34522 9.07406 1.73275C9.26907 2.12028 9.38158 2.54388 9.40453 2.97691C9.42748 3.40993 9.36038 3.84299 9.20743 4.24888C9.05447 4.65477 8.819 5.02469 8.5158 5.33538C8.21259 5.64606 7.84823 5.89078 7.44563 6.05414Z" transform="translate(172.66 133.817)" fill="#2C7BE5"/>
<path d="M7.31104 5.49986C5.91642 6.52843 -6.99146e-07 6.99414 -6.99146e-07 6.99414C-6.99146e-07 6.99414 2.17641 1.48842 3.5739 0.45699C4.24641 0.0492729 5.04754 -0.0925281 5.81959 0.0594768C6.59164 0.211482 7.2787 0.646289 7.74556 1.27833C8.21242 1.91037 8.42527 2.69387 8.3422 3.47462C8.25913 4.25537 7.88616 4.97683 7.29671 5.497L7.31104 5.49986Z" transform="translate(169.812 146.731)" fill="#2C7BE5"/>
<path d="M1.12212 5.54781C2.36783 6.75353 8.16684 8.00497 8.16684 8.00497C8.16684 8.00497 6.73499 2.25924 5.50074 1.05067C5.21274 0.728575 4.86133 0.469125 4.46841 0.288482C4.0755 0.107838 3.64949 0.00987487 3.21696 0.000709453C2.78443 -0.00845596 2.35465 0.0713707 1.9544 0.235207C1.55415 0.399043 1.19201 0.643374 0.890565 0.95298C0.58912 1.26259 0.354827 1.63082 0.202291 2.03473C0.0497541 2.43865 -0.0177473 2.8696 0.00397781 3.30069C0.0257029 3.73178 0.136198 4.15377 0.328574 4.54038C0.52095 4.927 0.791071 5.26994 1.12212 5.54781Z" transform="translate(166.285 122.232)" fill="#2C7BE5"/>
<path d="M1.54002 5.84021C3.08928 6.62021 8.98565 6.08022 8.98565 6.08022C8.98565 6.08022 5.90718 1.02022 4.35791 0.240215C3.62335 -0.0640471 2.80062 -0.079828 2.05489 0.196061C1.30916 0.47195 0.695625 1.01907 0.337471 1.72759C-0.0206841 2.43611 -0.0969639 3.25359 0.123969 4.01589C0.344901 4.77819 0.846686 5.42888 1.52857 5.83735L1.54002 5.84021Z" transform="translate(162.574 136.443)" fill="#2C7BE5"/>
<path d="M1.04877 5.49985C2.4434 6.52842 8.3598 6.99415 8.3598 6.99415C8.3598 6.99415 6.18339 1.48843 4.7859 0.457001C4.11339 0.0492841 3.31226 -0.0925344 2.54021 0.0594705C1.76816 0.211475 1.0811 0.646283 0.614237 1.27833C0.147376 1.91037 -0.0654651 2.69387 0.0176024 3.47462C0.10067 4.25537 0.473639 4.97682 1.06309 5.49699L1.04877 5.49985Z" transform="translate(161.809 151.314)" fill="#2C7BE5"/>
<path opacity="0.1" d="M6.30015 2.9109C6.30015 4.64233 3.15007 9.66234 3.15007 9.66234C3.15007 9.66234 -1.39829e-06 4.64233 -1.39829e-06 2.9109C0.0586884 2.11968 0.415144 1.37988 0.99782 0.83997C1.5805 0.300062 2.34628 4.07825e-06 3.14149 4.07825e-06C3.9367 4.07825e-06 4.70247 0.300062 5.28514 0.83997C5.86782 1.37988 6.22428 2.11968 6.28297 2.9109H6.30015Z" transform="translate(168.828 110.98)" fill="#2C7BE5"/>
<path opacity="0.1" d="M6.31447 5.03208C5.37231 6.48636 6.29232e-06 8.99493 6.29232e-06 8.99493C6.29232e-06 8.99493 0.0973736 3.07779 1.03953 1.62351C1.24851 1.24596 1.53312 0.915374 1.87568 0.652314C2.21823 0.389253 2.61139 0.199341 3.03068 0.0944172C3.44997 -0.010507 3.88644 -0.028209 4.31288 0.0424153C4.73933 0.11304 5.14663 0.270487 5.50946 0.50494C5.87228 0.739393 6.18286 1.04584 6.42186 1.40521C6.66086 1.76458 6.82316 2.1692 6.89868 2.59386C6.97419 3.01852 6.96129 3.45413 6.86078 3.87359C6.76027 4.29306 6.57432 4.68741 6.31447 5.03208Z" transform="translate(174.008 118.448)" fill="#2C7BE5"/>
<path opacity="0.1" d="M7.44563 6.05414C5.89637 6.83414 0 6.29415 0 6.29415C0 6.29415 3.07847 1.23415 4.62774 0.454147C4.99956 0.229614 5.41394 0.0842672 5.84479 0.0272674C6.27565 -0.0297324 6.71365 0.00284229 7.13128 0.122936C7.5489 0.243029 7.93709 0.448046 8.27144 0.725091C8.60579 1.00214 8.87906 1.34522 9.07406 1.73275C9.26907 2.12028 9.38158 2.54388 9.40453 2.97691C9.42748 3.40993 9.36038 3.84299 9.20743 4.24888C9.05447 4.65477 8.819 5.02469 8.5158 5.33538C8.21259 5.64606 7.84823 5.89078 7.44563 6.05414Z" transform="translate(172.66 133.817)" fill="#2C7BE5"/>
<path opacity="0.1" d="M7.31104 5.49986C5.91642 6.52843 -6.99146e-07 6.99414 -6.99146e-07 6.99414C-6.99146e-07 6.99414 2.17641 1.48842 3.5739 0.45699C4.24641 0.0492729 5.04754 -0.0925281 5.81959 0.0594768C6.59164 0.211482 7.2787 0.646289 7.74556 1.27833C8.21242 1.91037 8.42527 2.69387 8.3422 3.47462C8.25913 4.25537 7.88616 4.97683 7.29671 5.497L7.31104 5.49986Z" transform="translate(169.812 146.731)" fill="#2C7BE5"/>
<path opacity="0.1" d="M1.12212 5.54781C2.36783 6.75353 8.16684 8.00497 8.16684 8.00497C8.16684 8.00497 6.73499 2.25924 5.50074 1.05067C5.21274 0.728575 4.86133 0.469125 4.46841 0.288482C4.0755 0.107838 3.64949 0.00987487 3.21696 0.000709453C2.78443 -0.00845596 2.35465 0.0713707 1.9544 0.235207C1.55415 0.399043 1.19201 0.643374 0.890565 0.95298C0.58912 1.26259 0.354827 1.63082 0.202291 2.03473C0.0497541 2.43865 -0.0177473 2.8696 0.00397781 3.30069C0.0257029 3.73178 0.136198 4.15377 0.328574 4.54038C0.52095 4.927 0.791071 5.26994 1.12212 5.54781Z" transform="translate(166.285 122.232)" fill="#2C7BE5"/>
<path opacity="0.1" d="M1.54002 5.84021C3.08928 6.62021 8.98565 6.08022 8.98565 6.08022C8.98565 6.08022 5.90718 1.02022 4.35791 0.240215C3.62335 -0.0640471 2.80062 -0.079828 2.05489 0.196061C1.30916 0.47195 0.695625 1.01907 0.337471 1.72759C-0.0206841 2.43611 -0.0969639 3.25359 0.123969 4.01589C0.344901 4.77819 0.846686 5.42888 1.52857 5.83735L1.54002 5.84021Z" transform="translate(162.574 136.443)" fill="#2C7BE5"/>
<path opacity="0.1" d="M1.04877 5.49985C2.4434 6.52842 8.3598 6.99415 8.3598 6.99415C8.3598 6.99415 6.18339 1.48843 4.7859 0.457001C4.11339 0.0492841 3.31226 -0.0925344 2.54021 0.0594705C1.76816 0.211475 1.0811 0.646283 0.614237 1.27833C0.147376 1.91037 -0.0654651 2.69387 0.0176024 3.47462C0.10067 4.25537 0.473639 4.97682 1.06309 5.49699L1.04877 5.49985Z" transform="translate(161.809 151.314)" fill="#2C7BE5"/>
<path opacity="0.5" d="M18.4193 2.51286H16.6208C16.7912 2.52097 16.9614 2.49449 17.1212 2.43505C17.2809 2.3756 17.427 2.28442 17.5504 2.16702C17.6738 2.04961 17.7721 1.90844 17.8392 1.75204C17.9063 1.59565 17.9409 1.42728 17.9409 1.25714C17.9409 1.08701 17.9063 0.918645 17.8392 0.762248C17.7721 0.605851 17.6738 0.464674 17.5504 0.347272C17.427 0.22987 17.2809 0.138685 17.1212 0.0792382C16.9614 0.0197914 16.7912 -0.00667932 16.6208 0.00142925H2.03887C1.71545 0.0168253 1.41039 0.155845 1.18696 0.38965C0.963531 0.623456 0.838888 0.934101 0.838888 1.25714C0.838888 1.58019 0.963531 1.89083 1.18696 2.12464C1.41039 2.35844 1.71545 2.49746 2.03887 2.51286H3.83728C3.51387 2.52826 3.2088 2.66728 2.98537 2.90108C2.76195 3.13489 2.6373 3.44553 2.6373 3.76858C2.6373 4.09162 2.76195 4.40226 2.98537 4.63606C3.2088 4.86987 3.51387 5.00889 3.83728 5.02429H1.32008C1.14974 5.01618 0.979544 5.04265 0.819767 5.1021C0.659989 5.16155 0.513963 5.25273 0.390543 5.37013C0.267123 5.48753 0.168874 5.62871 0.101743 5.7851C0.0346127 5.9415 6.10478e-09 6.10987 6.10478e-09 6.28C6.10478e-09 6.45014 0.0346127 6.6185 0.101743 6.7749C0.168874 6.9313 0.267123 7.07247 0.390543 7.18987C0.513963 7.30727 0.659989 7.39846 0.819767 7.45791C0.979544 7.51735 1.14974 7.54383 1.32008 7.53572H15.8906C16.0609 7.54383 16.2312 7.51735 16.3909 7.45791C16.5507 7.39846 16.6967 7.30727 16.8202 7.18987C16.9436 7.07247 17.0418 6.9313 17.109 6.7749C17.1761 6.6185 17.2107 6.45014 17.2107 6.28C17.2107 6.10987 17.1761 5.9415 17.109 5.7851C17.0418 5.62871 16.9436 5.48753 16.8202 5.37013C16.6967 5.25273 16.5507 5.16155 16.3909 5.1021C16.2312 5.04265 16.0609 5.01618 15.8906 5.02429H18.4193C18.7427 5.00889 19.0477 4.86987 19.2712 4.63606C19.4946 4.40226 19.6192 4.09162 19.6192 3.76858C19.6192 3.44553 19.4946 3.13489 19.2712 2.90108C19.0477 2.66728 18.7427 2.52826 18.4193 2.51286Z" transform="translate(173.426 1.85571)" fill="#DEE3F3"/>
<path opacity="0.5" d="M14.0158 1.91286H12.647C12.7772 1.91996 12.9074 1.90051 13.0299 1.85569C13.1523 1.81087 13.2642 1.74163 13.3589 1.65218C13.4536 1.56274 13.529 1.45497 13.5806 1.33547C13.6321 1.21597 13.6587 1.08724 13.6587 0.957144C13.6587 0.827048 13.6321 0.698319 13.5806 0.578817C13.529 0.459315 13.4536 0.35155 13.3589 0.262106C13.2642 0.172661 13.1523 0.103412 13.0299 0.0585924C12.9074 0.013773 12.7772 -0.00567662 12.647 0.00142863H1.5587C1.31371 0.0147985 1.08316 0.12132 0.914465 0.299084C0.745772 0.476848 0.651761 0.712343 0.651761 0.957144C0.651761 1.20194 0.745772 1.43744 0.914465 1.6152C1.08316 1.79297 1.31371 1.89949 1.5587 1.91286H2.92755C2.79735 1.90575 2.66707 1.9252 2.54466 1.97002C2.42224 2.01484 2.31027 2.08409 2.21559 2.17354C2.1209 2.26298 2.04548 2.37074 1.99394 2.49024C1.9424 2.60974 1.91582 2.73848 1.91582 2.86857C1.91582 2.99867 1.9424 3.1274 1.99394 3.2469C2.04548 3.3664 2.1209 3.47417 2.21559 3.56361C2.31027 3.65306 2.42224 3.7223 2.54466 3.76712C2.66707 3.81194 2.79735 3.83139 2.92755 3.82429H1.01173C0.881534 3.81718 0.75125 3.83663 0.628838 3.88145C0.506426 3.92627 0.394455 3.99552 0.299767 4.08496C0.20508 4.17441 0.129661 4.28217 0.0781203 4.40167C0.0265794 4.52117 -6.07836e-07 4.64991 -6.07836e-07 4.78C-6.07836e-07 4.9101 0.0265794 5.03883 0.0781203 5.15833C0.129661 5.27783 0.20508 5.3856 0.299767 5.47504C0.394455 5.56449 0.506426 5.63373 0.628838 5.67855C0.75125 5.72337 0.881534 5.74282 1.01173 5.73572H12.1C12.2302 5.74282 12.3605 5.72337 12.4829 5.67855C12.6053 5.63373 12.7173 5.56449 12.812 5.47504C12.9066 5.3856 12.9821 5.27783 13.0336 5.15833C13.0851 5.03883 13.1117 4.9101 13.1117 4.78C13.1117 4.64991 13.0851 4.52117 13.0336 4.40167C12.9821 4.28217 12.9066 4.17441 12.812 4.08496C12.7173 3.99552 12.6053 3.92627 12.4829 3.88145C12.3605 3.83663 12.2302 3.81718 12.1 3.82429H14.0158C14.2608 3.81092 14.4914 3.7044 14.6601 3.52663C14.8287 3.34887 14.9228 3.11337 14.9228 2.86857C14.9228 2.62377 14.8287 2.38827 14.6601 2.21051C14.4914 2.03275 14.2608 1.92623 14.0158 1.91286Z" transform="translate(93.5742 9.78125)" fill="#DEE3F3"/>
<path d="M0.795379 0C0.795379 0 5.80686 9.81429 1.72322 15.1829C-2.36042 20.5514 2.0955 35.1829 2.0955 35.1829" transform="translate(13.7227 147.069)" stroke="#2C7BE5" stroke-miterlimit="10"/>
<path d="M2.78352 3.42858C2.78352 5.32 1.39176 6.85715 1.39176 6.85715C1.39176 6.85715 -3.49573e-07 5.32286 -3.49573e-07 3.42858C-3.49573e-07 1.53429 1.39176 2.79018e-06 1.39176 2.79018e-06C1.39176 2.79018e-06 2.78352 1.53715 2.78352 3.42858Z" transform="translate(13.2305 140.572)" fill="#2C7BE5"/>
<path d="M2.52996 0C2.52996 0 -2.48152 9.81429 1.60212 15.1829C5.68576 20.5514 1.22984 35.1829 1.22984 35.1829" transform="translate(14.5859 147.069)" stroke="#2C7BE5" stroke-miterlimit="10"/>
<path d="M-5.2436e-07 3.42858C-5.2436e-07 5.32 1.39176 6.85715 1.39176 6.85715C1.39176 6.85715 2.78352 5.32286 2.78352 3.42858C2.78352 1.53429 1.39176 2.79018e-06 1.39176 2.79018e-06C1.39176 2.79018e-06 -5.2436e-07 1.53715 -5.2436e-07 3.42858Z" transform="translate(15.6328 140.572)" fill="#2C7BE5"/>
<path opacity="0.1" d="M-5.2436e-07 3.42858C-5.2436e-07 5.32 1.39176 6.85715 1.39176 6.85715C1.39176 6.85715 2.78352 5.32286 2.78352 3.42858C2.78352 1.53429 1.39176 2.79018e-06 1.39176 2.79018e-06C1.39176 2.79018e-06 -5.2436e-07 1.53715 -5.2436e-07 3.42858Z" transform="translate(15.6328 140.572)" fill="black"/>
<path d="M0.795379 0C0.795379 0 5.80686 9.81429 1.72322 15.1829C-2.36042 20.5514 2.0955 35.1829 2.0955 35.1829" transform="translate(18.3672 147.069)" stroke="#2C7BE5" stroke-miterlimit="10"/>
<path d="M2.78352 3.42858C2.78352 5.32 1.39176 6.85715 1.39176 6.85715C1.39176 6.85715 -8.73933e-07 5.32286 -8.73933e-07 3.42858C-8.73933e-07 1.53429 1.39176 2.79018e-06 1.39176 2.79018e-06C1.39176 2.79018e-06 2.78352 1.53715 2.78352 3.42858Z" transform="translate(17.8594 140.572)" fill="#2C7BE5"/>
<path d="M3.3849 3.42858C2.07046 4.79144 -1.39829e-06 4.93428 -1.39829e-06 4.93428C-1.39829e-06 4.93428 0.0629994 2.86571 1.37744 1.50571C2.69188 0.145711 4.76234 8.37054e-06 4.76234 8.37054e-06C4.76234 8.37054e-06 4.69075 2.06287 3.3849 3.42858Z" transform="translate(16.4766 148.434)" fill="#2C7BE5"/>
<path d="M3.3849 3.42857C2.07046 4.79143 5.2436e-07 4.93429 5.2436e-07 4.93429C5.2436e-07 4.93429 0.0630013 2.86572 1.37744 1.50571C2.69188 0.145714 4.76234 -5.58036e-06 4.76234 -5.58036e-06C4.76234 -5.58036e-06 4.69934 2.06285 3.3849 3.42857Z" transform="translate(16.6094 155.206)" fill="#2C7BE5"/>
<path d="M3.30203 1.67715C4.54488 3.10572 4.50192 5.17429 4.50192 5.17429C4.50192 5.17429 2.44292 4.92572 1.20007 3.49715C-0.0427749 2.06857 0.000179916 4.18527e-06 0.000179916 4.18527e-06C0.000179916 4.18527e-06 2.05918 0.248574 3.30203 1.67715Z" transform="translate(9.5625 160.68)" fill="#2C7BE5"/>
<path d="M3.63118 0.779187C5.21194 1.8249 5.72454 3.83062 5.72454 3.83062C5.72454 3.83062 3.67413 4.14204 2.09337 3.09633C0.512604 2.05061 2.09744e-06 0.044899 2.09744e-06 0.044899C2.09744e-06 0.044899 2.059 -0.272242 3.63118 0.779187Z" transform="translate(10.3789 147.146)" fill="#2C7BE5"/>
<path opacity="0.1" d="M3.63118 0.779187C5.21194 1.8249 5.72454 3.83062 5.72454 3.83062C5.72454 3.83062 3.67413 4.14204 2.09337 3.09633C0.512604 2.05061 2.09744e-06 0.044899 2.09744e-06 0.044899C2.09744e-06 0.044899 2.059 -0.272242 3.63118 0.779187Z" transform="translate(10.3789 147.146)" fill="black"/>
<path d="M2.52996 0C2.52996 0 -2.48152 9.81429 1.60212 15.1829C5.68576 20.5514 1.22984 35.1829 1.22984 35.1829" transform="translate(19.2266 147.069)" stroke="#2C7BE5" stroke-miterlimit="10"/>
<path d="M-1.39829e-06 3.42858C-1.39829e-06 5.32 1.39176 6.85715 1.39176 6.85715C1.39176 6.85715 2.78352 5.32286 2.78352 3.42858C2.78352 1.53429 1.39176 2.79018e-06 1.39176 2.79018e-06C1.39176 2.79018e-06 -1.39829e-06 1.53715 -1.39829e-06 3.42858Z" transform="translate(20.2734 140.572)" fill="#2C7BE5"/>
<path opacity="0.1" d="M-1.39829e-06 3.42858C-1.39829e-06 5.32 1.39176 6.85715 1.39176 6.85715C1.39176 6.85715 2.78352 5.32286 2.78352 3.42858C2.78352 1.53429 1.39176 2.79018e-06 1.39176 2.79018e-06C1.39176 2.79018e-06 -1.39829e-06 1.53715 -1.39829e-06 3.42858Z" transform="translate(20.2734 140.572)" fill="black"/>
<path d="M1.43185 1.46571C0.100231 2.81428 1.22351e-06 4.89428 1.22351e-06 4.89428C1.22351e-06 4.89428 2.07046 4.77714 3.40208 3.42857C4.7337 2.07999 4.83393 -7.67299e-06 4.83393 -7.67299e-06C4.83393 -7.67299e-06 2.76348 0.117137 1.43185 1.46571Z" transform="translate(19.2422 150.543)" fill="#2C7BE5"/>
<path opacity="0.1" d="M1.43185 1.46571C0.100231 2.81428 1.22351e-06 4.89428 1.22351e-06 4.89428C1.22351e-06 4.89428 2.07046 4.77714 3.40208 3.42857C4.7337 2.07999 4.83393 -7.67299e-06 4.83393 -7.67299e-06C4.83393 -7.67299e-06 2.76348 0.117137 1.43185 1.46571Z" transform="translate(19.2422 150.543)" fill="black"/>
<path d="M1.43185 1.46571C0.100231 2.81428 1.39829e-06 4.89428 1.39829e-06 4.89428C1.39829e-06 4.89428 2.07046 4.77714 3.40208 3.42856C4.7337 2.07999 4.83393 -8.37054e-06 4.83393 -8.37054e-06C4.83393 -8.37054e-06 2.75488 0.117136 1.43185 1.46571Z" transform="translate(21.8516 159.917)" fill="#2C7BE5"/>
<path d="M0 4.85715C0 4.85715 3.01548 0.11429 7.2509 4.18527e-06Z" transform="translate(19.4492 154.466)" stroke="#2C7BE5" stroke-miterlimit="10"/>
<path d="M7.2509 4.85714C7.2509 4.85714 4.23542 0.114282 -8.73933e-07 -4.18527e-06Z" transform="translate(9.84375 151.6)" stroke="#2C7BE5" stroke-miterlimit="10"/>
<path d="M-1.74787e-06 4.85714C-1.74787e-06 4.85714 3.01548 0.114285 7.2509 -6.97545e-07Z" transform="translate(16.7031 158.371)" stroke="#2C7BE5" stroke-miterlimit="10"/>
<path d="M0.781791 1.55999C1.21356 1.55999 1.56358 1.21078 1.56358 0.78C1.56358 0.349217 1.21356 4.88282e-06 0.781791 4.88282e-06C0.35002 4.88282e-06 0 0.349217 0 0.78C0 1.21078 0.35002 1.55999 0.781791 1.55999Z" transform="translate(25.7734 153.66)" fill="#2C7BE5"/>
<path d="M0.781791 1.56C1.21356 1.56 1.56358 1.21079 1.56358 0.780003C1.56358 0.349221 1.21356 8.37054e-06 0.781791 8.37054e-06C0.35002 8.37054e-06 0 0.349221 0 0.780003C0 1.21079 0.35002 1.56 0.781791 1.56Z" transform="translate(9.13672 150.86)" fill="#2C7BE5"/>
<path d="M7.2509 4.85715C7.2509 4.85715 4.23542 0.114286 5.2436e-07 0Z" transform="translate(11.668 159.926)" stroke="#2C7BE5" stroke-miterlimit="10"/>
<path d="M0.781792 1.56001C1.21356 1.56001 1.56358 1.21078 1.56358 0.779996C1.56358 0.349213 1.21356 0 0.781792 0C0.35002 0 0 0.349213 0 0.779996C0 1.21078 0.35002 1.56001 0.781792 1.56001Z" transform="translate(10.9609 159.191)" fill="#2C7BE5"/>
<path d="M0.781791 1.56C1.21356 1.56 1.56358 1.21079 1.56358 0.780007C1.56358 0.349224 1.21356 -5.58036e-06 0.781791 -5.58036e-06C0.35002 -5.58036e-06 0 0.349224 0 0.780007C0 1.21079 0.35002 1.56 0.781791 1.56Z" transform="translate(23.2266 157.631)" fill="#2C7BE5"/>
<path d="M28.5398 7.12451C28.5398 7.12451 21.2717 5.67307 19.3301 3.73878C17.3886 1.80449 8.67144 -1.57835 7.70065 0.83879C6.72985 3.25593 -5.38361 11.4759 2.85526 12.9274C11.0941 14.3788 22.2397 14.8617 24.6624 13.8931C27.0851 12.9245 28.5398 7.12451 28.5398 7.12451Z" transform="translate(7.05469 169.416)" fill="#A8A8A8"/>
<path opacity="0.2" d="M2.85194 4.95429C11.0908 6.40572 22.2363 6.88858 24.659 5.92C26.5033 5.18286 27.7862 1.63428 28.2931 -8.37054e-06L28.5365 0.0514356C28.5365 0.0514356 27.0817 5.8543 24.659 6.82001C22.2363 7.78573 11.0908 7.30287 2.85194 5.85429C0.475062 5.43429 -0.206499 4.45143 0.0512342 3.20858C0.251693 4.00858 1.08217 4.64286 2.85194 4.95429Z" transform="translate(7.05859 176.489)" fill="black"/>
<path d="M6.60197 8.37054e-06C6.60197 8.37054e-06 9.00176 3.14287 5.49372 7.85715C1.98568 12.5714 -0.906662 16.5743 0.264593 19.5229C0.264593 19.5229 5.55671 10.7429 9.86372 10.62C14.1707 10.4972 11.3414 5.27715 6.60197 8.37054e-06Z" transform="translate(249.656 149.292)" fill="#2C7BE5"/>
<path opacity="0.1" d="M6.46624 8.37054e-06C6.67536 0.302801 6.84025 0.633719 6.95594 0.982849C11.1599 5.90857 13.3964 10.5057 9.35859 10.6229C5.59569 10.7314 1.08247 17.4429 -6.99146e-06 19.14C0.0357124 19.2709 0.0787385 19.3996 0.128863 19.5257C0.128863 19.5257 5.42098 10.7457 9.72799 10.6229C14.035 10.5 11.2057 5.27715 6.46624 8.37054e-06Z" transform="translate(249.793 149.292)" fill="black"/>
<path d="M0.572744 0.700473C0.572744 1.80333 0.449604 2.70047 0.286373 2.70047C0.123142 2.70047 2.79659e-06 1.80619 2.79659e-06 0.700473C2.79659e-06 -0.405242 0.154627 0.129044 0.306404 0.129044C0.45818 0.129044 0.572744 -0.399528 0.572744 0.700473Z" transform="translate(260.148 152.58)" fill="#FFD037"/>
<path d="M1.89206 0.754455C0.921261 1.28303 0.076478 1.61161 0.00488542 1.4659C-0.0667072 1.32018 0.657788 0.794469 1.62858 0.268754C2.59938 -0.25696 2.21566 0.125897 2.29012 0.268754C2.36457 0.411612 2.85999 0.225883 1.89206 0.754455Z" transform="translate(260.359 153.843)" fill="#FFD037"/>
<path d="M5.38591 8.37054e-06C5.38591 8.37054e-06 2.98612 3.14287 6.49416 7.85715C10.0022 12.5714 12.8945 16.5743 11.7233 19.5229C11.7233 19.5229 6.43118 10.7429 2.12416 10.62C-2.18285 10.4972 0.646481 5.27715 5.38591 8.37054e-06Z" transform="translate(238.199 149.292)" fill="#2C7BE5"/>
<path opacity="0.1" d="M5.38591 8.37054e-06C5.17679 0.302801 5.01192 0.633719 4.89623 0.982849C0.692311 5.90857 -1.54425 10.5057 2.49358 10.6229C6.25648 10.7314 10.7697 17.4429 11.8522 19.14C11.8164 19.2709 11.7734 19.3996 11.7233 19.5257C11.7233 19.5257 6.43118 10.7457 2.12416 10.6229C-2.18285 10.5 0.646481 5.27715 5.38591 8.37054e-06Z" transform="translate(238.199 149.292)" fill="black"/>
<path d="M7.69061e-06 0.700473C7.69061e-06 1.80333 0.123147 2.70047 0.286378 2.70047C0.449609 2.70047 0.572748 1.80619 0.572748 0.700473C0.572748 -0.405242 0.418106 0.129044 0.26633 0.129044C0.114554 0.129044 7.69061e-06 -0.399528 7.69061e-06 0.700473Z" transform="translate(239.121 152.58)" fill="#FFD037"/>
<path d="M0.591871 0.754455C1.56267 1.28303 2.40747 1.61161 2.47906 1.4659C2.55065 1.32018 1.82612 0.794469 0.855326 0.268754C-0.115469 -0.25696 0.268268 0.125897 0.193812 0.268754C0.119355 0.411612 -0.378925 0.225883 0.591871 0.754455Z" transform="translate(237 153.843)" fill="#FFD037"/>
<path d="M2.79659e-06 3.61585C2.79659e-06 3.61585 6.70966 3.41014 8.73143 1.97299C10.7532 0.535848 19.0408 -1.16987 19.5534 1.11585C20.066 3.40156 29.6365 12.5759 22.062 12.6359C14.4875 12.6959 4.46164 11.4587 2.44273 10.233C0.423822 9.00729 2.79659e-06 3.61585 2.79659e-06 3.61585Z" transform="translate(239.887 164.787)" fill="#A8A8A8"/>
<path opacity="0.2" d="M22.1966 8.23428C14.6221 8.29428 4.59625 7.05715 2.57734 5.83143C1.03953 4.89714 0.426686 1.54572 0.223363 6.97545e-06H2.79659e-06C2.79659e-06 6.97545e-06 0.423822 5.40001 2.44273 6.62572C4.46164 7.85144 14.4875 9.09143 22.062 9.02857C24.2499 9.01143 25.003 8.23429 24.9629 7.08572C24.6594 7.78572 23.8375 8.22 22.1966 8.23428Z" transform="translate(239.887 168.397)" fill="black"/>
<path opacity="0.5" d="M18.2877 2.51286H16.4893C16.6596 2.52097 16.8298 2.4945 16.9896 2.43505C17.1494 2.3756 17.2954 2.28441 17.4188 2.16701C17.5422 2.04961 17.6405 1.90844 17.7076 1.75204C17.7748 1.59564 17.8094 1.42728 17.8094 1.25714C17.8094 1.08701 17.7748 0.918641 17.7076 0.762244C17.6405 0.605847 17.5422 0.464672 17.4188 0.34727C17.2954 0.229868 17.1494 0.138686 16.9896 0.0792387C16.8298 0.0197919 16.6596 -0.00668098 16.4893 0.00142759H1.91877C1.59535 0.0168237 1.29029 0.155845 1.06686 0.389651C0.843433 0.623456 0.718791 0.934101 0.718791 1.25714C0.718791 1.58019 0.843433 1.89083 1.06686 2.12464C1.29029 2.35844 1.59535 2.49746 1.91877 2.51286H3.71717C3.39376 2.52826 3.08869 2.66727 2.86527 2.90108C2.64184 3.13488 2.5172 3.44553 2.5172 3.76857C2.5172 4.09161 2.64184 4.40226 2.86527 4.63606C3.08869 4.86987 3.39376 5.00889 3.71717 5.02429H1.19998C0.876562 5.03968 0.571496 5.17871 0.348068 5.41251C0.124641 5.64632 -1.57918e-06 5.95696 -1.57918e-06 6.28C-1.57918e-06 6.60305 0.124641 6.91369 0.348068 7.1475C0.571496 7.3813 0.876562 7.52032 1.19998 7.53572H15.7705C15.9408 7.54383 16.111 7.51736 16.2708 7.45791C16.4306 7.39846 16.5766 7.30727 16.7 7.18987C16.8235 7.07247 16.9217 6.9313 16.9888 6.7749C17.056 6.6185 17.0906 6.45014 17.0906 6.28C17.0906 6.10987 17.056 5.9415 16.9888 5.7851C16.9217 5.62871 16.8235 5.48753 16.7 5.37013C16.5766 5.25273 16.4306 5.16155 16.2708 5.1021C16.111 5.04265 15.9408 5.01618 15.7705 5.02429H18.2877C18.6111 5.00889 18.9162 4.86987 19.1396 4.63606C19.363 4.40226 19.4877 4.09161 19.4877 3.76857C19.4877 3.44553 19.363 3.13488 19.1396 2.90108C18.9162 2.66727 18.6111 2.52826 18.2877 2.51286Z" transform="translate(32.6445 18.8071)" fill="#DEE3F3"/>
<defs>
<linearGradient id="paint0_linear" x2="1" gradientUnits="userSpaceOnUse" gradientTransform="translate(-18.6135 118.292) scale(118.557 118.286) rotate(-90)">
<stop stop-color="#808080" stop-opacity="0.25"/>
<stop offset="0.54" stop-color="#808080" stop-opacity="0.12"/>
<stop offset="1" stop-color="#808080" stop-opacity="0.1"/>
</linearGradient>
<linearGradient id="paint1_linear" x2="1" gradientUnits="userSpaceOnUse" gradientTransform="translate(69.5946 30.3639) scale(0.0575421 0.0137137) rotate(-90)">
<stop stop-color="#808080" stop-opacity="0.25"/>
<stop offset="0.54" stop-color="#808080" stop-opacity="0.12"/>
<stop offset="1" stop-color="#808080" stop-opacity="0.1"/>
</linearGradient>
<linearGradient id="paint2_linear" x2="1" gradientUnits="userSpaceOnUse" gradientTransform="translate(6246.79 57727.8) scale(24388.4 31869.5) rotate(-90)">
<stop stop-color="#808080" stop-opacity="0.25"/>
<stop offset="0.54" stop-color="#808080" stop-opacity="0.12"/>
<stop offset="1" stop-color="#808080" stop-opacity="0.1"/>
</linearGradient>
<linearGradient id="paint3_linear" x2="1" gradientUnits="userSpaceOnUse" gradientTransform="translate(39414.5 70008.1) scale(24711.4 47331.1) rotate(-90)">
<stop stop-color="#808080" stop-opacity="0.25"/>
<stop offset="0.54" stop-color="#808080" stop-opacity="0.12"/>
<stop offset="1" stop-color="#808080" stop-opacity="0.1"/>
</linearGradient>
</defs>
</svg>
