<svg viewBox="0 0 182 129" fill="none" xmlns="http://www.w3.org/2000/svg">
<path opacity="0.1" d="M16.9185 5.58217C16.1765 7.08717 17.2454 8.71146 16.8711 10.2655C16.407 12.2264 13.7445 13.7526 10.8761 14.7265C8.00776 15.7004 4.80433 16.292 2.00787 17.3411C0.798409 17.7937 -0.461716 18.6287 0.167529 19.3968C0.384905 19.6631 0.793506 19.8494 1.19067 20.0242C9.33326 23.58 19.3996 25.5115 29.4658 25.4494C40.1025 25.3824 50.5202 23.1617 61.1488 23.4166C74.8581 23.7434 88.1164 28.1653 101.671 26.8907C107.425 26.3498 112.771 24.8072 118.372 23.8447C126.613 22.428 135.28 22.2858 143.814 21.8201C150.222 21.4704 157.543 20.5635 160.607 17.1548C162.82 14.6906 161.892 11.4355 158.773 9.34875C155.655 7.26202 150.673 6.36981 146.069 6.77506C143.595 6.9924 141.135 7.55615 138.662 7.33228C137.225 7.20156 135.895 6.81264 134.589 6.43026C124.456 3.45622 113.948 0.488722 102.694 0.0573226C84.3802 -0.650237 67.4216 5.37628 49.5886 7.98265C46.8101 8.3879 43.7963 8.70002 41.1731 8.02024C38.4077 7.30287 36.5967 5.60832 33.8297 4.89423C32.5222 4.55434 31.0512 4.45629 29.7584 4.08699C26.2068 3.07059 27.8511 1.67344 22.9299 2.61631C20.3475 3.10817 17.7472 3.90233 16.9185 5.58217Z" transform="translate(5.6875 89.7276)" fill="#2C7BE5"/>
<path d="M3.19219e-06 42.9896C3.19219e-06 42.9896 12.173 23.8577 13.644 15.6872C15.115 7.5168 17.8934 -1.99474e-07 17.8934 -1.99474e-07" transform="translate(117.074 2.12431)" stroke="#535461" stroke-width="2" stroke-miterlimit="10"/>
<path d="M7.68169 -1.99474e-07L0 0.653635C0 0.653635 4.08601 7.68021 7.68169 -1.99474e-07Z" transform="translate(130.066 18.4652)" fill="#2C7BE5"/>
<path d="M0.266679 -1.99474e-07L6.34992 4.87121C6.34992 4.87121 -1.53116 8.00703 0.266679 -1.99474e-07Z" transform="translate(124.078 14.2166)" fill="#2C7BE5"/>
<path d="M6.91679 -1.99474e-07L-1.19707e-06 0.926527C-1.19707e-06 0.926527 6.09959 5.88272 6.91679 -1.99474e-07Z" transform="translate(131.812 11.7654)" fill="#2C7BE5"/>
<path d="M0.116227 -1.99474e-07L4.68275 3.20445C4.68275 3.20445 -0.864415 5.5559 0.116227 -1.99474e-07Z" transform="translate(127.172 9.3143)" fill="#2C7BE5"/>
<path d="M-3.99024e-07 1.22144C-3.99024e-07 1.22144 5.66974 -0.280283 6.48695 0.0465347C7.30415 0.373352 6.81383 3.96834 4.52566 4.13175C2.2375 4.29516 -3.99024e-07 1.22144 -3.99024e-07 1.22144Z" transform="translate(133.551 5.18255)" fill="#2C7BE5"/>
<path d="M1.37903 -1.99474e-07C1.37903 -1.99474e-07 4.97472 3.43158 5.13816 4.24863C5.3016 5.06567 2.19623 7.02658 0.561826 4.24863C-1.07258 1.47068 1.37903 -1.99474e-07 1.37903 -1.99474e-07Z" transform="translate(128.359 2.12431)" fill="#2C7BE5"/>
<path d="M1.6344 3.26818C2.53706 3.26818 3.2688 2.53657 3.2688 1.63409C3.2688 0.731606 2.53706 0 1.6344 0C0.731745 0 -1.99512e-06 0.731606 -1.99512e-06 1.63409C-1.99512e-06 2.53657 0.731745 3.26818 1.6344 3.26818Z" transform="translate(134.805 0.817039)" fill="#FFD037"/>
<path d="M1.6344 3.26818C2.53706 3.26818 3.2688 2.53657 3.2688 1.63409C3.2688 0.731606 2.53706 0 1.6344 0C0.731745 0 -1.99512e-06 0.731606 -1.99512e-06 1.63409C-1.99512e-06 2.53657 0.731745 3.26818 1.6344 3.26818Z" transform="translate(131.863)" fill="#FFD037"/>
<path d="M2.86838 44.6253C2.86838 44.6253 -2.33229 30.9774 1.75535 20.3183C3.47147 15.8441 3.77547 10.9484 2.46468 6.33863C1.83834 4.15497 1.01334 2.03324 1.09732e-06 0" transform="translate(23.7812 56.4528)" stroke="#535461" stroke-width="2" stroke-miterlimit="10"/>
<path d="M6.20866 2.8682C6.34104 4.58073 3.62793 9.78529 3.62793 9.78529C3.62793 9.78529 0.141751 5.06278 0.00936427 3.35025C-0.0545727 2.52812 0.210766 1.71426 0.747006 1.08773C1.28324 0.461186 2.04646 0.0732905 2.86875 0.00936595C3.69105 -0.0545586 4.50506 0.210724 5.13172 0.74686C5.75838 1.283 6.14635 2.04607 6.21029 2.8682H6.20866Z" transform="translate(20.1094 46.8456)" fill="#2C7BE5"/>
<path d="M6.00423 4.59115C5.18702 6.10104 0.0778802 8.99501 0.0778802 8.99501C0.0778802 8.99501 -0.280055 3.13681 0.538781 1.62691C0.931939 0.90207 1.59699 0.363072 2.38763 0.128484C3.17828 -0.106104 4.02974 -0.0170663 4.75472 0.376016C5.4797 0.769098 6.01881 1.43402 6.25344 2.22451C6.48807 3.015 6.39902 3.86631 6.00586 4.59115H6.00423Z" transform="translate(26.1758 54.2066)" fill="#2C7BE5"/>
<path d="M7.33847 5.76035C5.86751 6.6493 6.98292e-07 6.5774 6.98292e-07 6.5774C6.98292e-07 6.5774 2.64937 1.33851 4.11706 0.449569C4.46638 0.23809 4.85393 0.0974722 5.2576 0.0357415C5.66127 -0.0259891 6.07315 -0.00762261 6.46973 0.0897939C6.8663 0.18721 7.23979 0.36177 7.56889 0.603503C7.89798 0.845236 8.17624 1.14941 8.38776 1.49866C8.59928 1.8479 8.73993 2.23538 8.80167 2.63898C8.86341 3.04257 8.84504 3.45437 8.74761 3.85086C8.65017 4.24736 8.47558 4.62078 8.2338 4.94981C7.99202 5.27885 7.68779 5.55704 7.33847 5.76852V5.76035Z" transform="translate(25.875 69.2573)" fill="#2C7BE5"/>
<path d="M7.09658 5.45814C5.79886 6.58239 7.98048e-07 7.49585 7.98048e-07 7.49585C7.98048e-07 7.49585 1.72593 1.88439 3.02201 0.760133C3.33055 0.492645 3.68876 0.288537 4.07619 0.159459C4.46362 0.03038 4.87269 -0.0211435 5.28003 0.00783866C5.68738 0.0368208 6.08503 0.145742 6.45027 0.328373C6.81552 0.511003 7.14121 0.763775 7.40875 1.07225C7.67629 1.38072 7.88044 1.73886 8.00954 2.12622C8.13865 2.51358 8.19018 2.92256 8.16119 3.32983C8.1322 3.7371 8.02326 4.13467 7.8406 4.49984C7.65793 4.86502 7.40511 5.19065 7.09658 5.45814Z" transform="translate(24.1367 82.0097)" fill="#2C7BE5"/>
<path d="M1.12345 5.49933C2.44405 6.59743 8.26089 7.38833 8.26089 7.38833C8.26089 7.38833 6.41892 1.81446 5.09669 0.717984C4.46252 0.190986 3.64494 -0.0625541 2.8238 0.0131393C2.00266 0.0888327 1.24522 0.487559 0.718122 1.1216C0.191022 1.75565 -0.0625671 2.57308 0.0131409 3.39406C0.0888489 4.21504 0.487652 4.97233 1.12182 5.49933H1.12345Z" transform="translate(18.6445 58.5389)" fill="#2C7BE5"/>
<path d="M1.92864 5.97835C3.51728 6.63199 9.3047 5.65154 9.3047 5.65154C9.3047 5.65154 5.87245 0.884903 4.29035 0.232902C3.52744 -0.0802203 2.67137 -0.0775159 1.91046 0.240427C1.14955 0.55837 0.546128 1.16551 0.232945 1.92827C-0.0802372 2.69103 -0.0775272 3.54694 0.240477 4.3077C0.558481 5.06847 1.16573 5.67177 1.92864 5.98489V5.97835Z" transform="translate(15.707 72.649)" fill="#2C7BE5"/>
<path d="M1.45942 5.73718C2.91567 6.64737 8.78645 6.65554 8.78645 6.65554C8.78645 6.65554 6.2139 1.37744 4.75928 0.473785C4.06031 0.0362805 3.21613 -0.105694 2.41247 0.0790962C1.6088 0.263886 0.911464 0.760308 0.473876 1.45914C0.036287 2.15798 -0.105712 3.00199 0.0791135 3.8055C0.263939 4.60902 0.760449 5.30621 1.45942 5.74372V5.73718Z" transform="translate(16.0508 87.3535)" fill="#2C7BE5"/>
<path d="M6.20866 2.8682C6.34104 4.58073 3.62793 9.78529 3.62793 9.78529C3.62793 9.78529 0.141751 5.06278 0.00936427 3.35025C-0.0545727 2.52812 0.210766 1.71426 0.747006 1.08773C1.28324 0.461186 2.04646 0.0732905 2.86875 0.00936595C3.69105 -0.0545586 4.50506 0.210724 5.13172 0.74686C5.75838 1.283 6.14635 2.04607 6.21029 2.8682H6.20866Z" transform="translate(20.1094 46.8456)" fill="#2C7BE5"/>
<path d="M6.00423 4.59115C5.18702 6.10104 0.0778802 8.99501 0.0778802 8.99501C0.0778802 8.99501 -0.280055 3.13681 0.538781 1.62691C0.931939 0.90207 1.59699 0.363072 2.38763 0.128484C3.17828 -0.106104 4.02974 -0.0170663 4.75472 0.376016C5.4797 0.769098 6.01881 1.43402 6.25344 2.22451C6.48807 3.015 6.39902 3.86631 6.00586 4.59115H6.00423Z" transform="translate(26.1758 54.2066)" fill="#2C7BE5"/>
<path d="M7.33847 5.76035C5.86751 6.6493 6.98292e-07 6.5774 6.98292e-07 6.5774C6.98292e-07 6.5774 2.64937 1.33851 4.11706 0.449569C4.46638 0.23809 4.85393 0.0974722 5.2576 0.0357415C5.66127 -0.0259891 6.07315 -0.00762261 6.46973 0.0897939C6.8663 0.18721 7.23979 0.36177 7.56889 0.603503C7.89798 0.845236 8.17624 1.14941 8.38776 1.49866C8.59928 1.8479 8.73993 2.23538 8.80167 2.63898C8.86341 3.04257 8.84504 3.45437 8.74761 3.85086C8.65017 4.24736 8.47558 4.62078 8.2338 4.94981C7.99202 5.27885 7.68779 5.55704 7.33847 5.76852V5.76035Z" transform="translate(25.875 69.2573)" fill="#2C7BE5"/>
<path d="M7.09658 5.45814C5.79886 6.58239 7.98048e-07 7.49585 7.98048e-07 7.49585C7.98048e-07 7.49585 1.72593 1.88439 3.02201 0.760133C3.33055 0.492645 3.68876 0.288537 4.07619 0.159459C4.46362 0.03038 4.87269 -0.0211435 5.28003 0.00783866C5.68738 0.0368208 6.08503 0.145742 6.45027 0.328373C6.81552 0.511003 7.14121 0.763775 7.40875 1.07225C7.67629 1.38072 7.88044 1.73886 8.00954 2.12622C8.13865 2.51358 8.19018 2.92256 8.16119 3.32983C8.1322 3.7371 8.02326 4.13467 7.8406 4.49984C7.65793 4.86502 7.40511 5.19065 7.09658 5.45814Z" transform="translate(24.1367 82.0097)" fill="#2C7BE5"/>
<path d="M1.12345 5.49933C2.44405 6.59743 8.26089 7.38833 8.26089 7.38833C8.26089 7.38833 6.41892 1.81446 5.09669 0.717984C4.46252 0.190986 3.64494 -0.0625541 2.8238 0.0131393C2.00266 0.0888327 1.24522 0.487559 0.718122 1.1216C0.191022 1.75565 -0.0625671 2.57308 0.0131409 3.39406C0.0888489 4.21504 0.487652 4.97233 1.12182 5.49933H1.12345Z" transform="translate(18.6445 58.5389)" fill="#2C7BE5"/>
<path d="M1.92864 5.97835C3.51728 6.63199 9.3047 5.65154 9.3047 5.65154C9.3047 5.65154 5.87245 0.884903 4.29035 0.232902C3.52744 -0.0802203 2.67137 -0.0775159 1.91046 0.240427C1.14955 0.55837 0.546128 1.16551 0.232945 1.92827C-0.0802372 2.69103 -0.0775272 3.54694 0.240477 4.3077C0.558481 5.06847 1.16573 5.67177 1.92864 5.98489V5.97835Z" transform="translate(15.707 72.649)" fill="#2C7BE5"/>
<path d="M1.45942 5.73718C2.91567 6.64737 8.78645 6.65554 8.78645 6.65554C8.78645 6.65554 6.2139 1.37744 4.75928 0.473785C4.06031 0.0362805 3.21613 -0.105694 2.41247 0.0790962C1.6088 0.263886 0.911464 0.760308 0.473876 1.45914C0.036287 2.15798 -0.105712 3.00199 0.0791135 3.8055C0.263939 4.60902 0.760449 5.30621 1.45942 5.74372V5.73718Z" transform="translate(16.0508 87.3535)" fill="#2C7BE5"/>
<path d="M15.1094 3.03878C15.1094 3.03878 11.164 2.56326 10.0428 1.60896C8.92158 0.654649 4.12461 -0.796419 3.7062 0.538631C3.2878 1.87368 -2.84285 6.77757 1.61907 7.21388C6.08099 7.65018 12.0645 7.44265 13.3116 6.82496C14.5586 6.20728 15.1094 3.03878 15.1094 3.03878Z" transform="translate(21.7969 95.5817)" fill="#A8A8A8"/>
<path opacity="0.2" d="M1.58801 3.70938C6.05156 4.14405 12.0269 3.93979 13.2822 3.3221C14.2383 2.85149 14.776 0.903652 14.9787 1.99474e-06L15.1111 0.0163389C15.1111 0.0163389 14.575 3.1832 13.3132 3.80252C12.0515 4.42184 6.08261 4.61957 1.61906 4.18981C0.33115 4.06398 -0.0741841 3.56558 0.0108048 2.88253C0.159536 3.31557 0.628611 3.61624 1.58801 3.70938Z" transform="translate(21.7969 98.6041)" fill="black"/>
<path opacity="0.1" d="M171.122 74.8803C164.715 83.6586 166.84 96.1888 170.534 106.171C171.772 109.513 173.18 113.048 172.537 116.683C171.753 121.128 168.066 124.458 164.233 126.272C157.246 129.578 148.992 129.05 142.742 124.885C137.349 121.29 133.552 115.316 128.054 111.892C118.852 106.165 106.906 108.724 96.6651 113.097C89.4198 116.19 81.4832 120.174 74.4225 117.317C69.454 115.308 66.1083 110.191 64.3481 104.722C63.4982 102.081 62.9033 99.2151 61.21 97.148C60.2032 95.9191 58.8728 95.0629 57.5048 94.3471C45.0196 87.8108 28.96 91.896 16.8556 84.6031C8.68358 79.6779 3.59732 70.1202 1.48403 60.0722C-0.62925 50.0241 -0.10624 39.4173 0.735478 28.9918C1.33367 21.5829 2.27999 13.6657 6.73537 7.84344C11.4474 1.6862 19.3448 -0.76166 26.407 0.204085C33.4693 1.16983 39.7994 5.09654 45.34 9.77003C52.2682 15.6135 58.6424 22.9457 67.259 25.1582C73.1281 26.6681 79.3633 25.5994 85.4646 25.1272C95.6633 24.3396 105.826 25.2465 115.927 26.271C125.596 27.2515 135.332 28.3463 144.489 31.5606C150.97 33.8352 156.107 38.1345 162.208 41.0726C166.184 42.9878 170.56 43.4322 174.303 45.9062C178.921 48.9538 183.096 54.3528 181.741 60.832C180.461 66.9909 174.522 70.2215 171.122 74.8803Z" transform="translate(0 0.573738)" fill="#2C7BE5"/>
<path d="M110.886 1.28424e-06H4.1759C3.06953 -0.000866032 2.00811 0.437609 1.22502 1.21901C0.441938 2.00041 0.00129974 3.06077 0 4.16692V66.344C0.00129974 67.4501 0.441938 68.5105 1.22502 69.2919C2.00811 70.0733 3.06953 70.5117 4.1759 70.5109H47.1476V85.8337H43.1041C42.84 85.8337 42.5866 85.9385 42.3997 86.1251C42.2128 86.3117 42.1076 86.5648 42.1071 86.8289V88.8944H73.4681V86.8256C73.4676 86.5615 73.3624 86.3084 73.1755 86.1218C72.9885 85.9353 72.7352 85.8305 72.4711 85.8305H67.308V70.506H110.886C111.992 70.5068 113.052 70.0691 113.835 69.2887C114.618 68.5084 115.059 67.4493 115.062 66.344V4.16692C115.061 3.06077 114.62 2.00041 113.837 1.21901C113.054 0.437609 111.992 -0.000866032 110.886 1.28424e-06Z" transform="translate(29.875 13.3129)" fill="url(#paint0_linear)"/>
<path d="M19.8204 0H0V19.1221H19.8204V0Z" transform="translate(77.2852 80.9167)" fill="#474059"/>
<path opacity="0.1" d="M19.8204 0H0V1.69619H19.8204V0Z" transform="translate(77.2852 98.3427)" fill="black"/>
<path d="M0.980642 0H29.8524C30.1125 0 30.3619 0.103302 30.5458 0.287172C30.7297 0.471043 30.833 0.72042 30.833 0.980453V3.01979H-3.99024e-07V0.980453C-3.99024e-07 0.72042 0.103316 0.471043 0.287222 0.287172C0.471128 0.103302 0.720559 0 0.980642 0Z" transform="translate(72.332 98.5355)" fill="#474059"/>
<path d="M109.02 0H4.10562C1.83815 0 0 1.83779 0 4.10483V65.3602C0 67.6273 1.83815 69.4651 4.10562 69.4651H109.02C111.287 69.4651 113.125 67.6273 113.125 65.3602V4.10483C113.125 1.83779 111.287 0 109.02 0Z" transform="translate(30.9375 13.9665)" fill="#474059"/>
<path d="M108.124 0H0V56.7486H108.124V0Z" transform="translate(33.3125 22.0798)" fill="white"/>
<path d="M0.952856 1.88247C1.4791 1.88247 1.90572 1.46106 1.90572 0.941235C1.90572 0.421405 1.4791 0 0.952856 0C0.426608 0 -3.59122e-06 0.421405 -3.59122e-06 0.941235C-3.59122e-06 1.46106 0.426608 1.88247 0.952856 1.88247Z" transform="translate(86.4258 18.207)" fill="white"/>
<path opacity="0.1" d="M19.7583 -2.39368e-06H2.39415e-06V0.372574H19.7583V-2.39368e-06Z" transform="translate(77.3281 83.479)" fill="black"/>
<path d="M8.16731 0C5.01143 2.61349 2.62731 6.03722 1.27108 9.90341C-0.0851548 13.7696 -0.362258 17.9322 0.469528 21.944C1.30132 25.9558 3.21056 29.6652 5.99218 32.6738C8.7738 35.6824 12.3227 37.8765 16.2576 39.0204L22.5599 17.3622L8.16731 0Z" transform="translate(85.7695 35.3322)" fill="#D6D6E3"/>
<path d="M14.3926 2.46286e-05C9.13561 -0.00775601 4.04245 1.82822 3.99024e-07 5.18825L14.3926 22.5504L26.3106 3.40383C22.7362 1.17337 18.606 -0.0062087 14.3926 2.46286e-05Z" transform="translate(94.4258 30.144)" fill="#D6D6E3"/>
<path d="M6.30226 0L3.99024e-07 21.6566C3.3292 22.623 6.83634 22.8097 10.2493 22.2021C13.6624 21.5944 16.8895 20.2088 19.6803 18.1527C22.4712 16.0967 24.7508 13.4254 26.3422 10.3462C27.9336 7.26694 28.7942 3.86254 28.857 0.397082L6.30226 0Z" transform="translate(102.516 52.6944)" fill="#8499F0"/>
<path d="M8.17201 0H-1.99512e-06V4.90226H8.17201V0Z" transform="translate(42.9531 41.746)" fill="#8499F0"/>
<path d="M8.17201 0H-1.99512e-06V4.90226H8.17201V0Z" transform="translate(42.9531 50.2433)" fill="#FC6681"/>
<path d="M8.17201 0H-1.99512e-06V4.90226H8.17201V0Z" transform="translate(42.9531 58.7405)" fill="#2C7BE5"/>
<path d="M15.3634 0H-1.99512e-06V1.96091H15.3634V0Z" transform="translate(55.5352 43.2167)" fill="#D6D6E3"/>
<path d="M15.3634 0H-1.99512e-06V1.96091H15.3634V0Z" transform="translate(55.5352 51.714)" fill="#D6D6E3"/>
<path d="M15.3634 0H-1.99512e-06V1.96091H15.3634V0Z" transform="translate(55.5352 60.2112)" fill="#D6D6E3"/>
<path d="M108.197 0H0V1.96091H108.197V0Z" transform="translate(33.3086 21.9736)" fill="#D6D6E3"/>
<path d="M0.490321 0.980453C0.761118 0.980453 0.980642 0.760971 0.980642 0.490227C0.980642 0.219482 0.761118 0 0.490321 0C0.219525 0 0 0.219482 0 0.490227C0 0.760971 0.219525 0.980453 0.490321 0.980453Z" transform="translate(34.125 22.4638)" fill="#FC6681"/>
<path d="M0.490321 0.980453C0.761118 0.980453 0.980642 0.760971 0.980642 0.490227C0.980642 0.219482 0.761118 0 0.490321 0C0.219525 0 0 0.219482 0 0.490227C0 0.760971 0.219525 0.980453 0.490321 0.980453Z" transform="translate(35.4336 22.4638)" fill="#FFC74C"/>
<path d="M0.490321 0.980453C0.761118 0.980453 0.980642 0.760971 0.980642 0.490227C0.980642 0.219482 0.761118 0 0.490321 0C0.219525 0 0 0.219482 0 0.490227C0 0.760971 0.219525 0.980453 0.490321 0.980453Z" transform="translate(36.7422 22.4638)" fill="#85D459"/>
<path d="M2.14478 -1.99474e-06C2.14478 -1.99474e-06 2.92438 1.01967 1.78521 2.55898C0.646027 4.0983 -0.293749 5.3974 0.0854322 6.35824C0.0854322 6.35824 1.80482 3.49858 3.2055 3.45936C4.60619 3.42014 3.68602 1.71906 2.14478 -1.99474e-06Z" transform="translate(146.867 88.4074)" fill="#2C7BE5"/>
<path opacity="0.1" d="M2.09694 -1.99474e-06C2.16697 0.100442 2.22203 0.210532 2.26038 0.326816C3.62674 1.93149 4.35405 3.43159 3.04163 3.4659C1.81909 3.50022 0.351393 5.68663 -3.99024e-06 6.24385C0.0112614 6.28652 0.0249027 6.32853 0.0408561 6.36968C0.0408561 6.36968 1.76025 3.51002 3.16094 3.4708C4.56162 3.43158 3.63818 1.71906 2.09694 -1.99474e-06Z" transform="translate(146.914 88.4074)" fill="black"/>
<path d="M0.179782 0.230885C0.179782 0.590384 0.138924 0.88452 0.0898922 0.88452C0.0408601 0.88452 1.99512e-06 0.593652 1.99512e-06 0.230885C1.99512e-06 -0.131883 0.0506661 0.0413352 0.0996982 0.0413352C0.14873 0.0413352 0.179782 -0.128614 0.179782 0.230885Z" transform="translate(150.285 89.4756)" fill="#FFD037"/>
<path d="M0.614434 0.246424C0.298994 0.418003 0.0244141 0.522582 0.00153248 0.478462C-0.0213492 0.434341 0.214012 0.259501 0.529452 0.0879223C0.844891 -0.0836569 0.720676 0.0405337 0.743558 0.0879223C0.76644 0.135311 0.929874 0.0748448 0.614434 0.246424Z" transform="translate(150.348 89.8882)" fill="#FFD037"/>
<path d="M1.75113 -1.99474e-06C1.75113 -1.99474e-06 0.971523 1.01967 2.1107 2.55898C3.24988 4.0983 4.18967 5.3974 3.81049 6.35824C3.81049 6.35824 2.09109 3.49858 0.690405 3.45936C-0.710279 3.42014 0.211523 1.71906 1.75113 -1.99474e-06Z" transform="translate(143.145 88.4074)" fill="#2C7BE5"/>
<path opacity="0.1" d="M1.7535 -1.99474e-06C1.68347 0.100442 1.62841 0.210532 1.59006 0.326816C0.223699 1.93149 -0.503605 3.43159 0.808821 3.4659C2.03135 3.50022 3.49905 5.68663 3.85044 6.24385C3.83918 6.28652 3.82554 6.32853 3.80958 6.36968C3.80958 6.36968 2.09019 3.51002 0.689502 3.4708C-0.711181 3.43158 0.213893 1.71906 1.7535 -1.99474e-06Z" transform="translate(143.141 88.4074)" fill="black"/>
<path d="M-2.39415e-06 0.230885C-2.39415e-06 0.590384 0.0408557 0.88452 0.0898878 0.88452C0.13892 0.88452 0.179788 0.593652 0.179788 0.230885C0.179788 -0.131883 0.129114 0.0413352 0.0800818 0.0413352C0.0310497 0.0413352 -2.39415e-06 -0.128614 -2.39415e-06 0.230885Z" transform="translate(143.445 89.4756)" fill="#FFD037"/>
<path d="M0.191748 0.246424C0.507187 0.418003 0.781767 0.522582 0.804649 0.478462C0.827531 0.434341 0.59218 0.259501 0.27674 0.0879223C-0.0387 -0.0836569 0.085515 0.0405337 0.0626334 0.0879223C0.0397517 0.135311 -0.123692 0.0748448 0.191748 0.246424Z" transform="translate(142.754 89.8882)" fill="#FFD037"/>
<path d="M8.42082 2.10565C8.42082 2.10565 6.27648 1.67752 5.70444 1.10559C5.1324 0.53366 2.55822 -0.466401 2.27219 0.247695C1.98617 0.961791 -1.58827 3.39331 0.842092 3.82144C3.27245 4.24957 6.5625 4.39337 7.27674 4.10741C7.99097 3.82144 8.42082 2.10565 8.42082 2.10565Z" transform="translate(143.871 92.892)" fill="#A8A8A8"/>
<path opacity="0.2" d="M0.841834 1.46414C3.27219 1.89227 6.56225 2.03607 7.27648 1.75011C7.82074 1.53277 8.19992 0.486955 8.34865 -3.59052e-06L8.42056 0.0147076C8.42056 0.0147076 7.99235 1.7305 7.27648 2.01646C6.56061 2.30243 3.27219 2.15863 0.841834 1.7305C0.140675 1.60631 -0.0603557 1.31544 0.0148268 0.947775C0.0752997 1.18635 0.32046 1.37263 0.841834 1.46414Z" transform="translate(143.871 94.983)" fill="black"/>
<path d="M24.5161 20.8117C24.518 16.646 23.4573 12.5487 21.4343 8.90699C19.4112 5.26533 16.4925 2.19971 12.9543 -9.97368e-07L0 20.8117L24.5161 21.2431C24.5161 21.101 24.5161 20.9572 24.5161 20.8117Z" transform="translate(112.414 46.346)" fill="url(#paint1_linear)"/>
<path d="M22.5548 19.1466C22.5566 15.3142 21.5807 11.5447 19.7195 8.19438C17.8583 4.84409 15.1732 2.02375 11.9181 -2.39368e-06L0 19.1466L22.5548 19.5502C22.5548 19.4113 22.5548 19.279 22.5548 19.1466Z" transform="translate(113.395 47.1974)" fill="#2C7BE5"/>
<path d="M38.9396 16.3911C38.9396 16.328 38.9336 16.2675 38.9216 16.2098C38.9097 16.152 38.8987 16.0856 38.8889 16.0104C38.865 15.8797 38.8383 15.7533 38.8089 15.6313C38.7936 15.5703 38.7778 15.5104 38.7615 15.4515C38.5821 14.7763 38.2594 14.1476 37.8151 13.6083L37.7383 13.5201C37.6871 13.4634 37.637 13.4089 37.588 13.3566C37.5389 13.3044 37.4904 13.2575 37.4425 13.2161C37.3951 13.172 37.3477 13.1311 37.3036 13.0936C37.2137 13.0184 37.1303 12.9563 37.0551 12.904C36.98 12.8517 36.9489 12.8321 36.9048 12.806C36.7975 12.7407 36.6768 12.7005 36.5518 12.6883L35.7738 12.6099L34.7212 12.5053L30.9196 11.0052L30.7692 11.0591C30.6583 10.748 30.5644 10.4311 30.4881 10.1097C30.6037 10.059 30.7064 9.98304 30.7888 9.88747C30.8787 9.81595 30.9494 9.72333 30.9948 9.61785C31.0896 9.39398 30.9065 8.91356 30.9441 8.6374C31.0046 8.19783 31.2301 7.77297 31.4115 7.37425C31.8022 6.51799 32.0866 5.58983 32.0408 4.65023C31.995 3.71062 31.5734 2.75632 30.7921 2.23178C30.3884 1.96052 29.9128 1.81508 29.4944 1.5667C29.1675 1.37388 28.8799 1.12223 28.5677 0.904897C27.8061 0.387995 26.9218 0.0806784 26.0037 0.013843C25.0856 -0.0529923 24.1661 0.123009 23.3376 0.524154C22.5482 0.919603 21.8748 1.50461 21.1295 1.98503C20.3842 2.46545 19.5066 2.82332 18.6354 2.68442C18.6232 2.71997 18.6144 2.75664 18.6093 2.7939L18.5357 2.7841C18.3854 3.20079 18.7531 3.61095 19.0931 3.89528C19.737 4.43453 20.466 4.97214 21.306 4.99175C21.6329 4.99175 21.9729 4.92966 22.2687 5.06529C22.3332 5.0958 22.3935 5.13422 22.4485 5.17967C22.2594 5.93796 22.2806 6.73345 22.5098 7.48059C22.739 8.22774 23.1676 8.89828 23.7495 9.42013L21.8094 8.71093C21.8094 8.71093 21.7277 8.75342 21.6035 8.83349L18.9084 7.01148C18.9084 7.01148 13.5067 5.00809 12.0063 8.11286C10.5059 11.2176 18.5096 9.60805 18.5096 9.60805L20.2224 10.564C20.1658 10.9228 20.232 11.2901 20.4104 11.6065L25.0799 14.5397C24.1368 14.8355 22.5858 15.3077 22.3112 15.3077C21.9108 15.3077 20.8108 15.7081 20.1097 17.3079C19.4085 18.9076 16.9079 26.7104 14.708 28.0095C12.508 29.3086 6.69938 38.0118 6.69938 38.0118L6.72553 38.0804C6.62202 38.1076 6.52068 38.1381 6.42153 38.1719C4.97017 38.6523 3.99281 39.6638 3.40606 40.4841C3.30657 40.6224 3.2448 40.7841 3.22685 40.9534C3.20889 41.1228 3.23536 41.2939 3.30365 41.4499C3.37194 41.6059 3.47968 41.7414 3.61629 41.8432C3.75289 41.9449 3.91364 42.0093 4.08269 42.03C6.37086 42.3241 7.62445 41.2522 8.22591 40.4416C8.26514 40.3894 8.30109 40.3371 8.33541 40.288C8.51427 40.3661 8.71563 40.3754 8.90092 40.3142L11.7056 38.0167C11.7056 38.0167 9.52036 40.2063 10.7985 42.2048L10.7004 42.3437C8.52781 45.4957 6.93697 49.0111 6.00312 52.7234C6.00312 52.7234 4.80183 53.6238 4.6956 57.2237C4.58936 60.8236 3.38807 66.6263 3.38807 66.6263C3.38807 66.6263 2.58722 73.527 3.08735 75.6285C3.08735 75.6285 3.14455 75.7118 3.25079 75.8393C3.2132 75.885 3.17234 75.9324 3.12657 75.9831C2.69019 76.4618 1.90241 77.1269 0.985509 76.9276C-0.415175 76.6269 -0.415178 79.1287 1.58533 79.328C2.87324 79.4571 5.40656 80.0421 7.04587 80.4425C7.2264 80.4869 7.41497 80.4871 7.59561 80.4432C7.77626 80.3992 7.94366 80.3124 8.08364 80.1901C8.22362 80.0678 8.33206 79.9136 8.39979 79.7405C8.46751 79.5674 8.49253 79.3805 8.47271 79.1957C8.37465 78.3002 8.19649 77.2151 7.87288 76.4439C7.85326 76.3965 7.83202 76.3491 7.81077 76.3033C7.86961 76.2478 7.92845 76.1906 7.98729 76.1285C7.98729 76.1285 7.98729 71.7279 8.68682 70.5268C8.68682 70.5268 10.5876 61.425 10.4847 59.1242C10.4062 57.3267 15.4156 50.3148 17.5959 47.3587L17.578 47.246C18.1549 46.4812 18.5096 46.0237 18.5096 46.0237L20.211 56.9263C20.211 56.9263 21.0118 59.3268 22.0088 60.6275C22.0088 60.6275 26.3106 68.9287 26.8107 71.5302C27.1899 73.5025 27.9711 74.6676 28.3274 75.117C28.2866 75.1595 28.2424 75.202 28.1967 75.2444C27.7423 75.6693 27.0689 76.0942 26.3106 75.9324C24.9099 75.6317 24.9099 78.1335 26.9104 78.3329C28.1983 78.462 30.7317 79.047 32.371 79.4473C32.5515 79.4917 32.7401 79.4919 32.9207 79.448C33.1013 79.4041 33.2687 79.3173 33.4087 79.195C33.5487 79.0726 33.6571 78.9184 33.7249 78.7453C33.7926 78.5722 33.8176 78.3853 33.7978 78.2005C33.685 77.1596 33.4611 75.8654 33.0296 75.0957C32.9926 75.0315 32.9544 74.971 32.9152 74.9144C33.068 74.8519 33.204 74.7545 33.3124 74.63C33.3124 74.63 30.712 68.329 30.712 66.623C30.712 66.623 29.6121 60.121 25.9102 57.7205C25.9102 57.7205 26.2599 49.5893 27.3141 45.0645C27.3403 44.9555 27.3669 44.8466 27.3942 44.7377C28.3771 44.5814 29.3513 44.3753 30.3132 44.12L30.4129 41.1198L30.9131 43.5203L36.5158 40.0201C36.5158 40.0201 36.4668 39.3893 36.372 38.4219C36.3246 37.9317 36.2657 37.3712 36.1954 36.7551C36.1399 36.2649 36.0761 35.7404 36.0059 35.206C35.9884 35.072 35.9704 34.938 35.9519 34.804C35.8784 34.2648 35.7983 33.719 35.7117 33.1863C35.679 32.9859 35.6452 32.7876 35.6103 32.5915C35.5646 32.33 35.5172 32.0735 35.4681 31.8251C35.4431 31.7009 35.418 31.5784 35.393 31.4574C35.3679 31.3365 35.3423 31.2178 35.3161 31.1012C35.29 30.9846 35.2633 30.8708 35.2361 30.7597L35.1952 30.5963C35.168 30.4873 35.1402 30.3817 35.1118 30.2793C34.9948 29.8526 34.9268 29.414 34.9092 28.972C34.9026 28.7955 34.9026 28.6196 34.9092 28.4442C34.9157 28.2688 34.9321 28.0934 34.9582 27.918C34.9702 27.8309 34.9844 27.7437 35.0007 27.6565C35.0653 27.3084 35.1605 26.9667 35.2851 26.6352C35.3472 26.4686 35.4169 26.3052 35.4943 26.145C35.6757 25.7675 35.8702 25.3574 36.0696 24.926C36.1698 24.7081 36.2712 24.4875 36.3736 24.2642C36.476 24.0409 36.5785 23.8121 36.6809 23.5779C37.6615 21.3735 38.616 18.9158 38.8726 17.3013C38.9004 17.1379 38.9184 16.9745 38.9298 16.8209C38.9425 16.678 38.9458 16.5345 38.9396 16.3911Z" transform="translate(129.863 26.2798)" fill="url(#paint2_linear)"/>
<path d="M10.1839 2.84776L6.88406 0.615599C6.88406 0.615599 1.64416 -1.32406 0.183003 1.68266C-1.27815 4.68938 6.49017 3.13863 6.49017 3.13863L9.79003 4.98188L10.1839 2.84776Z" transform="translate(141.902 33.6692)" fill="#F7BBC3"/>
<path d="M6.83452 5.07153C5.24262 4.68425 2.78775 4.11558 1.53743 3.99139C-0.402608 3.79693 -0.402608 1.37685 0.955581 1.66281C1.6927 1.82622 2.34483 1.4079 2.78611 0.99611C2.9236 0.867469 3.05245 0.729904 3.17183 0.584317C3.33187 0.38937 3.55299 0.254081 3.79945 0.20031C4.52676 0.0369017 6.04186 -0.198406 6.97346 0.303259C7.1884 0.436936 7.36208 0.627552 7.47522 0.853946C7.89363 1.59582 8.11101 2.85079 8.22052 3.86066C8.24 4.04023 8.21586 4.22185 8.15015 4.3901C8.08444 4.55835 7.9791 4.70827 7.84306 4.82712C7.70702 4.94597 7.54429 5.03024 7.36872 5.07279C7.19314 5.11534 7.00989 5.11491 6.83452 5.07153Z" transform="translate(155.012 99.4676)" fill="#B77983"/>
<path d="M6.83453 5.07153C5.24262 4.68425 2.78775 4.11558 1.53744 3.99139C-0.4026 3.79693 -0.4026 1.37685 0.955589 1.66281C1.8447 1.854 2.6096 1.21181 3.03291 0.747726C3.08358 0.690533 3.13098 0.636608 3.17184 0.584318C3.33188 0.389371 3.55299 0.254082 3.79944 0.200311C4.52675 0.0369021 6.04184 -0.198406 6.97345 0.303259C7.2464 0.450327 7.46377 0.773875 7.63866 1.19057C7.95246 1.93898 8.12898 2.98806 8.2205 3.86066C8.23999 4.04023 8.21586 4.22185 8.15014 4.3901C8.08443 4.55835 7.97908 4.70827 7.84305 4.82712C7.70701 4.94597 7.5443 5.03024 7.36873 5.07279C7.19315 5.11534 7.0099 5.11491 6.83453 5.07153Z" transform="translate(130.465 100.438)" fill="#B77983"/>
<path opacity="0.1" d="M4.60412 1.19384C2.28653 3.58124 0.300727 1.14971 -3.19219e-06 0.747723C0.0506633 0.69053 0.098067 0.636605 0.138927 0.584314C0.298967 0.389367 0.520079 0.254079 0.766532 0.200308C1.49384 0.0368989 3.00894 -0.198409 3.94055 0.303256C4.21186 0.453592 4.43087 0.777143 4.60412 1.19384Z" transform="translate(133.492 100.435)" fill="black"/>
<path opacity="0.1" d="M4.68747 0.85558C3.68394 1.5419 0.303995 1.37195 0.303995 1.37195C0.193673 1.25421 0.0920742 1.1286 -1.19707e-06 0.996109C0.137481 0.867467 0.266331 0.729902 0.385716 0.584316C0.545756 0.389369 0.766877 0.25408 1.01333 0.200309C1.74064 0.0369001 3.25574 -0.198408 4.18735 0.303257C4.40191 0.437612 4.57502 0.628797 4.68747 0.85558Z" transform="translate(157.797 99.466)" fill="black"/>
<path d="M29.3701 32.5968C28.6902 33.4694 24.8101 33.2766 24.8101 33.2766C24.8101 33.2766 23.6464 32.1131 23.161 29.5901C22.6756 27.067 18.5111 19.0142 18.5111 19.0142C17.5403 17.7527 16.764 15.4193 16.764 15.4193L15.1148 4.84507C15.1148 4.84507 7.1504 15.3261 7.24683 17.5599C7.34326 19.7937 5.49965 28.6194 5.49965 28.6194C4.81974 29.7829 4.81973 34.0527 4.81973 34.0527C2.29621 36.6673 0.161682 33.5625 0.161682 33.5625C-0.328638 31.5248 0.452611 24.8316 0.452611 24.8316C0.452611 24.8316 1.6163 19.2054 1.71437 15.7118C1.81243 12.2181 2.9843 11.3504 2.9843 11.3504C3.89084 7.75128 5.43406 4.34337 7.54102 1.28766C8.12777 0.447739 8.52166 -1.39632e-06 8.52166 -1.39632e-06L24.2315 1.84325C23.9299 2.51012 23.703 3.20831 23.5549 3.92508C22.5334 8.31424 22.1934 16.202 22.1934 16.202C25.7891 18.5306 26.8515 24.8365 26.8515 24.8365C26.8466 26.4853 29.3701 32.5968 29.3701 32.5968Z" transform="translate(133.289 67.2721)" fill="#605D82"/>
<g opacity="0.05">
<path opacity="0.05" d="M12.0063 1.29256L11.8053 2.39368e-06C11.8053 2.39368e-06 3.85556 10.4761 3.94545 12.7099C4.03534 14.9437 2.19827 23.7694 2.19827 23.7694C1.51836 24.9329 1.51836 29.2028 1.51836 29.2028C1.11236 29.6633 0.586863 30.0027 -4.38927e-06 30.1832C0.764896 30.3842 1.69324 30.2372 2.68369 29.2028C2.68369 29.2028 2.68369 24.9345 3.3636 23.7694C3.3636 23.7694 5.20721 14.9454 5.11078 12.7099C5.03396 10.9664 9.89304 4.16365 12.0063 1.29256Z" transform="translate(135.527 72.1221)" fill="black"/>
<path opacity="0.05" d="M18.4426 24.8365C18.4426 24.8365 17.3753 18.5306 13.7846 16.202C13.7846 16.202 14.1245 8.31587 15.146 3.92508C15.2941 3.20831 15.521 2.51013 15.8227 1.84325L0.10297 1.99474e-06L1.5961e-06 0.124189L14.659 1.84325C14.3573 2.51013 14.1304 3.20831 13.9823 3.92508C12.9608 8.31424 12.6209 16.202 12.6209 16.202C16.2165 18.5306 17.2789 24.8365 17.2789 24.8365C17.2789 26.4853 19.8024 32.5984 19.8024 32.5984C19.402 33.1132 17.8885 33.252 16.715 33.288C17.6467 33.3125 20.4055 33.3207 20.9645 32.5984C20.9596 32.5984 18.4426 26.4869 18.4426 24.8365Z" transform="translate(141.797 67.2705)" fill="black"/>
</g>
<path d="M5.3092 1.6488C5.19225 1.93587 5.03782 2.2062 4.84993 2.45276C4.26645 3.23876 3.05208 4.27804 0.83093 3.99371C0.667541 3.97238 0.512459 3.90913 0.380771 3.81011C0.249083 3.71109 0.145278 3.57966 0.0794578 3.42863C0.0136372 3.27761 -0.0119537 3.11211 0.00516944 2.94826C0.0222926 2.78441 0.0815444 2.62778 0.177169 2.49362C0.747576 1.69945 1.69553 0.717364 3.10275 0.251649C3.50412 0.118378 3.92007 0.0338855 4.34164 -1.99474e-06L5.3092 1.6488Z" transform="translate(133.582 64.2638)" fill="#F7BBC3"/>
<path d="M9.34265 2.84494L1.56125 1.99474e-06C1.56125 1.99474e-06 -0.671341 1.16347 0.203065 2.8139L7.77199 7.56746L9.34265 2.84494Z" transform="translate(150.043 35.9369)" fill="#D9D9EA"/>
<path opacity="0.1" d="M9.34265 2.84494L1.56125 1.99474e-06C1.56125 1.99474e-06 -0.671341 1.16347 0.203065 2.8139L7.77199 7.56746L9.34265 2.84494Z" transform="translate(150.043 35.9369)" fill="black"/>
<path d="M4.17582 0.191877C4.17582 0.191877 4.07939 4.75098 6.11586 6.30336C8.15232 7.85575 0.196051 8.72835 0.196051 8.72835C0.196051 8.72835 1.45781 4.0712 0.196051 1.64621C-1.06571 -0.778772 4.17582 0.191877 4.17582 0.191877Z" transform="translate(155.473 33.9001)" fill="#F7BBC3"/>
<path opacity="0.1" d="M16.6938 1.83998C16.3922 2.50685 16.1652 3.20505 16.0171 3.92181C6.63241 5.35491 0.10133 1.45107 0.10133 1.45107C0.0653729 1.39551 0.0310513 1.33832 -2.39415e-06 1.28766C0.586748 0.447738 0.98064 1.79526e-06 0.98064 1.79526e-06L16.6938 1.83998Z" transform="translate(140.828 67.2754)" fill="black"/>
<path opacity="0.1" d="M2.20808 1.6488C2.09113 1.93587 1.9367 2.2062 1.74881 2.45277C0.84989 2.30406 0.132385 0.586637 -1.5961e-06 0.251649C0.401365 0.118378 0.817317 0.0338855 1.23888 -1.99474e-06L2.20808 1.6488Z" transform="translate(136.684 64.2638)" fill="black"/>
<path d="M23.4831 9.97368e-07L19.9904 1.26152L18.5341 3.20118C18.5341 3.20118 15.5268 4.17183 15.1378 4.17183C14.7489 4.17183 13.6816 4.5591 13.0033 6.11149C12.325 7.66387 9.89794 15.2313 7.76341 16.4928C5.62888 17.7544 -2.39415e-06 26.1944 -2.39415e-06 26.1944C-2.39415e-06 26.1944 0.970833 28.809 2.13453 28.4266L4.85254 26.1944C4.85254 26.1944 2.71802 28.3285 3.97978 30.2698C3.97978 30.2698 11.936 35.0234 22.9013 32.1131L22.9977 29.2028L23.488 31.5314L28.911 28.1341C28.911 28.1341 28.4206 21.8723 27.5479 18.6842C27.1846 17.3445 27.3175 15.9187 27.9221 14.6692C29.331 11.7278 31.5048 6.82558 31.24 5.04279C30.9278 2.93645 29.7363 2.02136 29.2787 1.74357C29.1746 1.68109 29.0579 1.64257 28.9371 1.63082L27.1703 1.45434L23.4831 9.97368e-07Z" transform="translate(136.949 38.1674)" fill="#D9D9EA"/>
<path opacity="0.05" d="M12.1305 1.59579e-06C12.1305 1.59579e-06 10.1889 9.0267 8.05434 10.4778C5.91981 11.9288 0.194494 16.5893 -3.99024e-07 17.3654" transform="translate(142.332 47.9164)" fill="black"/>
<path d="M12.1289 0C12.1289 0 10.1889 9.02016 8.05434 10.4745C5.91981 11.9288 0.194489 16.586 -4.78829e-06 17.3622" transform="translate(141.461 47.6288)" fill="#D9D9EA"/>
<path opacity="0.1" d="M3.59122e-06 1.74603C3.59122e-06 1.74603 6.70106 -0.486136 8.63619 0.0972332L3.59122e-06 1.74603Z" transform="translate(155.434 39.5735)" fill="black"/>
<g opacity="0.05">
<path opacity="0.05" d="M4.56325 13.1136C5.97211 10.1722 8.14587 5.26993 7.8811 3.48714C7.56893 1.3808 6.37745 0.465715 5.91982 0.18792C5.81574 0.125435 5.69904 0.0869179 5.57821 0.0751674L4.82312 7.97894e-07C4.90198 0.0189445 4.97748 0.0498018 5.04703 0.0915093C5.5014 0.369304 6.69287 1.28276 7.00831 3.39073C7.27309 5.17842 5.09934 10.0807 3.69049 13.0171C3.08583 14.2666 2.95291 15.6924 3.3162 17.0321C4.19224 20.2186 4.67929 26.482 4.67929 26.482L-7.18244e-06 29.4054L0.119321 29.9741L5.5439 26.5768C5.5439 26.5768 5.05358 20.315 4.18081 17.1269C3.82046 15.7867 3.95626 14.3616 4.56325 13.1136Z" transform="translate(160.312 39.7247)" fill="black"/>
<path opacity="0.05" d="M3.14132 1.35793L3.98141 1.4429L0.326885 1.19684e-06L4.38927e-06 0.117653L3.14132 1.35793Z" transform="translate(160.102 38.1674)" fill="black"/>
</g>
<path opacity="0.05" d="M-1.19707e-06 1.35793C-1.19707e-06 1.35793 3.00731 -0.290867 3.97814 0.0964122C4.94898 0.483691 8.53813 1.59579e-06 8.53813 1.59579e-06" transform="translate(153.59 55.6783)" fill="black"/>
<path opacity="0.05" d="M3.83977 1.01165C3.72863 0.0312009 4.17973 0.19461 4.17973 0.19461C4.17973 0.19461 -1.06344 -0.782572 0.195053 1.64241C0.514568 2.311 0.697906 3.03644 0.734404 3.77653H0.783434C2.23805 3.77653 3.08794 2.14898 3.83977 1.01165Z" transform="translate(155.484 34.2928)" fill="black"/>
<path d="M4.17263 8.34365C6.47711 8.34365 8.34527 6.47586 8.34527 4.17183C8.34527 1.86779 6.47711 0 4.17263 0C1.86815 0 4.78829e-06 1.86779 4.78829e-06 4.17183C4.78829e-06 6.47586 1.86815 8.34365 4.17263 8.34365Z" transform="translate(152.086 29.3384)" fill="#F7BBC3"/>
<path opacity="0.1" d="M12.4337 7.15606C12.8129 6.32594 13.0874 5.42556 13.0433 4.51374C12.9992 3.60192 12.5889 2.67703 11.8322 2.16719C11.44 1.9041 10.9791 1.76194 10.5737 1.52173C10.2566 1.33381 9.97716 1.09033 9.6748 0.879531C8.93528 0.376981 8.07631 0.0782303 7.1845 0.0133938C6.29268 -0.0514427 5.39952 0.119925 4.59507 0.510225C3.82853 0.894236 3.17641 1.46617 2.454 1.92698C1.7316 2.38779 0.880074 2.74402 0.0334533 2.60513C-0.112009 3.00875 0.244291 3.40746 0.57444 3.68362C1.19878 4.20653 1.90648 4.72944 2.72041 4.74742C3.03585 4.74742 3.37418 4.68695 3.65366 4.81932C3.84673 4.92546 4.01065 5.07756 4.1309 5.26215C4.52251 5.78265 4.8542 6.3456 5.11972 6.94036C5.22922 7.18384 5.33873 7.44856 5.56264 7.59399C5.93692 7.83421 6.42397 7.63485 6.87016 7.61687C7.56152 7.59073 8.17768 8.0254 8.69415 8.48948C9.21063 8.95356 9.69277 9.48627 10.3384 9.73138C10.8287 9.9144 11.7848 9.90786 12.03 9.33267C12.1231 9.11533 11.945 8.64962 11.9809 8.3849C12.0381 7.9486 12.2506 7.54334 12.4337 7.15606Z" transform="translate(148.375 27.5879)" fill="black"/>
<path d="M12.4337 7.15606C12.8128 6.32594 13.0874 5.42556 13.0433 4.51374C12.9992 3.60192 12.5889 2.67703 11.8322 2.16719C11.44 1.9041 10.9791 1.76194 10.5737 1.52173C10.2566 1.33381 9.97717 1.09033 9.6748 0.879529C8.93528 0.376979 8.07632 0.0782284 7.1845 0.0133919C6.29268 -0.0514446 5.39953 0.119925 4.59507 0.510226C3.82854 0.894236 3.17641 1.46617 2.45401 1.92698C1.7316 2.38779 0.880079 2.74402 0.0334576 2.60513C-0.112004 3.00875 0.244295 3.40746 0.574445 3.68362C1.19879 4.20653 1.90648 4.72944 2.72042 4.74742C3.03586 4.74742 3.37417 4.68695 3.65365 4.81931C3.84673 4.92546 4.01064 5.07756 4.1309 5.26215C4.52467 5.78182 4.85857 6.34423 5.12625 6.93873C5.23576 7.18221 5.34527 7.44693 5.56918 7.59236C5.94346 7.83257 6.43051 7.63321 6.8767 7.61524C7.56806 7.58909 8.18422 8.02376 8.70069 8.48784C9.21716 8.95192 9.69931 9.48464 10.3449 9.72975C10.8352 9.91277 11.7914 9.90623 12.0365 9.33103C12.1297 9.1137 11.9515 8.64798 11.9875 8.38326C12.0381 7.9535 12.2571 7.54171 12.4337 7.15606Z" transform="translate(148.477 27.4915)" fill="#A1616A"/>
<defs>
<linearGradient id="paint0_linear" x2="1" gradientUnits="userSpaceOnUse" gradientTransform="translate(13.0752 88.8944) scale(88.9115 88.8944) rotate(-90)">
<stop stop-color="#808080" stop-opacity="0.25"/>
<stop offset="0.54" stop-color="#808080" stop-opacity="0.12"/>
<stop offset="1" stop-color="#808080" stop-opacity="0.1"/>
</linearGradient>
<linearGradient id="paint1_linear" x2="1" gradientUnits="userSpaceOnUse" gradientTransform="translate(18166.4 9923.95) scale(3187.09 2761.61) rotate(-90)">
<stop stop-color="#808080" stop-opacity="0.25"/>
<stop offset="0.54" stop-color="#808080" stop-opacity="0.12"/>
<stop offset="1" stop-color="#808080" stop-opacity="0.1"/>
</linearGradient>
<linearGradient id="paint2_linear" x2="1" gradientUnits="userSpaceOnUse" gradientTransform="translate(27676.5 56881.2) scale(19176.9 39629.6) rotate(-90)">
<stop stop-color="#808080" stop-opacity="0.25"/>
<stop offset="0.54" stop-color="#808080" stop-opacity="0.12"/>
<stop offset="1" stop-color="#808080" stop-opacity="0.1"/>
</linearGradient>
</defs>
</svg>
