<svg width="64" height="47" viewBox="0 0 64 47" fill="none" xmlns="http://www.w3.org/2000/svg">
<path fill-rule="evenodd" clip-rule="evenodd" d="M27.25 23.5C27.25 36.4785 16.7812 47 3.86328 47H0V42.7266H4.62891C5.80859 42.7266 6.76562 41.7705 6.76562 40.5908C6.76562 39.4102 5.80859 38.4541 4.62891 38.4541H0V36.3184V34.1455C0.992188 33.9609 1.74219 33.0908 1.74219 32.0459C1.74219 31 0.992188 30.1299 0 29.9453V28.3555L1.80469 25.6357H4.62891C5.80859 25.6357 6.76562 24.6797 6.76562 23.5C6.76562 22.3193 5.80859 21.3633 4.62891 21.3633L5.79688 19.6152L4.12109 17.0908H9.65625C10.8359 17.0908 11.793 16.1348 11.793 14.9551C11.793 13.7744 10.8359 12.8184 9.65625 12.8184H1.28906L0 10.876V8.54492H3.08594C4.26562 8.54492 5.22266 7.58887 5.22266 6.40918C5.22266 5.22852 4.26562 4.27246 3.08594 4.27246H0V0H3.86328C16.7812 0 27.25 10.5215 27.25 23.5Z" transform="translate(35.75)" fill="#2C7BE5"/>
<path fill-rule="evenodd" clip-rule="evenodd" d="M0 2.13672C0 0.961914 0.953125 0 2.125 0C3.30078 0 4.25 0.961914 4.25 2.13672C4.25 3.31055 3.30078 4.27246 2.125 4.27246C0.953125 4.27246 0 3.31055 0 2.13672ZM25.3281 0C24.1484 0 23.1914 0.956055 23.1914 2.13672C23.1914 3.31641 24.1484 4.27246 25.3281 4.27246H39.2188C40.4023 4.27246 41.3555 3.31641 41.3555 2.13672C41.3555 0.956055 40.4023 0 39.2188 0H25.3281ZM36.5352 8.5459C35.3555 8.5459 34.3984 9.50195 34.3984 10.6826C34.3984 11.8623 35.3555 12.8184 36.5352 12.8184H49.2695C50.4492 12.8184 51.4062 11.8623 51.4062 10.6826C51.4062 9.50195 50.4492 8.5459 49.2695 8.5459H36.5352ZM37.4922 19.2275C37.4922 18.0469 38.4492 17.0908 39.6289 17.0908H53.5195C54.7031 17.0908 55.6562 18.0469 55.6562 19.2275C55.6562 20.4072 54.7031 21.3633 53.5195 21.3633H39.6289C38.4492 21.3633 37.4922 20.4072 37.4922 19.2275ZM36.1484 34.1816C34.9688 34.1816 34.0117 35.1377 34.0117 36.3184C34.0117 37.498 34.9688 38.4541 36.1484 38.4541H50.0391C51.2227 38.4541 52.1758 37.498 52.1758 36.3184C52.1758 35.1377 51.2227 34.1816 50.0391 34.1816H36.1484ZM13.9141 36.3184C13.9141 35.1377 14.8711 34.1816 16.0508 34.1816H28.7852C29.9648 34.1816 30.9219 35.1377 30.9219 36.3184C30.9219 37.498 29.9648 38.4541 28.7852 38.4541H16.0508C14.8711 38.4541 13.9141 37.498 13.9141 36.3184ZM26.1016 25.6367C24.9219 25.6367 23.9648 26.5928 23.9648 27.7734C23.9648 28.9531 24.9219 29.9092 26.1016 29.9092H53.5234C54.7031 29.9092 55.6562 28.9531 55.6562 27.7734C55.6562 26.5928 54.7031 25.6367 53.5234 25.6367H26.1016ZM5.41016 19.2275C5.41016 18.0469 6.36719 17.0908 7.54688 17.0908H29.5547C30.7344 17.0908 31.6914 18.0469 31.6914 19.2275C31.6914 20.4072 30.7344 21.3633 29.5547 21.3633H7.54688C6.36719 21.3633 5.41016 20.4072 5.41016 19.2275ZM21.8477 8.5459C20.668 8.5459 19.7109 9.50195 19.7109 10.6826C19.7109 11.8623 20.668 12.8184 21.8477 12.8184H29.5547C30.7344 12.8184 31.6914 11.8623 31.6914 10.6826C31.6914 9.50195 30.7344 8.5459 29.5547 8.5459H21.8477ZM10.0508 10.6826C10.0508 9.50195 11.0078 8.5459 12.1875 8.5459H14.4844C15.6641 8.5459 16.6211 9.50195 16.6211 10.6826C16.6211 11.8623 15.6641 12.8184 14.4844 12.8184H12.1875C11.0078 12.8184 10.0508 11.8623 10.0508 10.6826ZM16.4375 25.6367C15.2578 25.6367 14.3008 26.5928 14.3008 27.7734C14.3008 28.9531 15.2578 29.9092 16.4375 29.9092H17.9609C19.1406 29.9092 20.0977 28.9531 20.0977 27.7734C20.0977 26.5928 19.1406 25.6367 17.9609 25.6367H16.4375ZM6.95703 27.7734C6.95703 26.5986 7.91016 25.6367 9.08203 25.6367C10.2578 25.6367 11.207 26.5986 11.207 27.7734C11.207 28.9473 10.2578 29.9092 9.08203 29.9092C7.91016 29.9092 6.95703 28.9473 6.95703 27.7734ZM9.48047 0C8.30078 0 7.34375 0.956055 7.34375 2.13672C7.34375 3.31641 8.30078 4.27246 9.48047 4.27246H17.9609C19.1406 4.27246 20.0977 3.31641 20.0977 2.13672C20.0977 0.956055 19.1406 0 17.9609 0H9.48047ZM25.3281 42.7275C24.1484 42.7275 23.1914 43.6836 23.1914 44.8643C23.1914 46.0439 24.1484 47 25.3281 47H39.2188C40.4023 47 41.3555 46.0439 41.3555 44.8643C41.3555 43.6836 40.4023 42.7275 39.2188 42.7275H25.3281ZM10.4375 44.8643C10.4375 43.6836 11.3945 42.7275 12.5742 42.7275H18.3516C19.5312 42.7275 20.4883 43.6836 20.4883 44.8643C20.4883 46.0439 19.5312 47 18.3516 47H12.5742C11.3945 47 10.4375 46.0439 10.4375 44.8643ZM4.84375 42.7275C3.66406 42.7275 2.70703 43.6836 2.70703 44.8643C2.70703 46.0439 3.66406 47 4.84375 47H5.98047C7.16016 47 8.11719 46.0439 8.11719 44.8643C8.11719 43.6836 7.16016 42.7275 5.98047 42.7275H4.84375Z" fill="#2C7BE5"/>
</svg>
